<svg xmlns="http://www.w3.org/2000/svg" xmlns:xlink="http://www.w3.org/1999/xlink" width="82.726" height="101.17" viewBox="0 0 82.726 101.17">
  <defs>
    <clipPath id="clip-path">
      <rect id="Rectangle_70" data-name="Rectangle 70" width="82.726" height="101.17" fill="#138995"/>
    </clipPath>
  </defs>
  <g id="Group_993" data-name="Group 993" transform="translate(0 0)">
    <g id="Group_92" data-name="Group 92" transform="translate(0 0)" clip-path="url(#clip-path)">
      <path id="Path_270" data-name="Path 270" d="M59.408,76.49a2.855,2.855,0,1,0,2.855-2.855,2.855,2.855,0,0,0-2.855,2.855" transform="translate(17.608 21.825)" fill="#138995"/>
      <path id="Path_271" data-name="Path 271" d="M59.408,61.763a2.855,2.855,0,1,0,2.855-2.855,2.855,2.855,0,0,0-2.855,2.855" transform="translate(17.608 17.46)" fill="#138995"/>
      <path id="Path_272" data-name="Path 272" d="M59.408,47.036a2.855,2.855,0,1,0,2.855-2.855,2.855,2.855,0,0,0-2.855,2.855" transform="translate(17.608 13.095)" fill="#138995"/>
      <path id="Path_273" data-name="Path 273" d="M59.408,32.309a2.855,2.855,0,1,0,2.855-2.855,2.855,2.855,0,0,0-2.855,2.855" transform="translate(17.608 8.73)" fill="#138995"/>
      <path id="Path_274" data-name="Path 274" d="M59.408,17.582a2.855,2.855,0,1,0,2.855-2.855,2.855,2.855,0,0,0-2.855,2.855" transform="translate(17.608 4.365)" fill="#138995"/>
      <path id="Path_275" data-name="Path 275" d="M59.408,2.855A2.855,2.855,0,1,0,62.263,0a2.855,2.855,0,0,0-2.855,2.855" transform="translate(17.608 0)" fill="#138995"/>
      <path id="Path_276" data-name="Path 276" d="M47.527,76.49a2.855,2.855,0,1,0,2.855-2.855,2.855,2.855,0,0,0-2.855,2.855" transform="translate(14.086 21.825)" fill="#138995"/>
      <path id="Path_277" data-name="Path 277" d="M47.527,61.763a2.855,2.855,0,1,0,2.855-2.855,2.855,2.855,0,0,0-2.855,2.855" transform="translate(14.086 17.46)" fill="#138995"/>
      <path id="Path_278" data-name="Path 278" d="M47.527,47.036a2.855,2.855,0,1,0,2.855-2.855,2.855,2.855,0,0,0-2.855,2.855" transform="translate(14.086 13.095)" fill="#138995"/>
      <path id="Path_279" data-name="Path 279" d="M47.527,32.309a2.855,2.855,0,1,0,2.855-2.855,2.855,2.855,0,0,0-2.855,2.855" transform="translate(14.086 8.73)" fill="#138995"/>
      <path id="Path_280" data-name="Path 280" d="M47.527,17.582a2.855,2.855,0,1,0,2.855-2.855,2.855,2.855,0,0,0-2.855,2.855" transform="translate(14.086 4.365)" fill="#138995"/>
      <path id="Path_281" data-name="Path 281" d="M47.527,2.855A2.855,2.855,0,1,0,50.382,0a2.855,2.855,0,0,0-2.855,2.855" transform="translate(14.086 0)" fill="#138995"/>
      <path id="Path_282" data-name="Path 282" d="M35.645,76.49A2.855,2.855,0,1,0,38.5,73.635a2.855,2.855,0,0,0-2.855,2.855" transform="translate(10.565 21.825)" fill="#138995"/>
      <path id="Path_283" data-name="Path 283" d="M35.645,61.763A2.855,2.855,0,1,0,38.5,58.908a2.855,2.855,0,0,0-2.855,2.855" transform="translate(10.565 17.46)" fill="#138995"/>
      <path id="Path_284" data-name="Path 284" d="M35.645,47.036A2.855,2.855,0,1,0,38.5,44.181a2.855,2.855,0,0,0-2.855,2.855" transform="translate(10.565 13.095)" fill="#138995"/>
      <path id="Path_285" data-name="Path 285" d="M35.645,32.309A2.855,2.855,0,1,0,38.5,29.454a2.855,2.855,0,0,0-2.855,2.855" transform="translate(10.565 8.73)" fill="#138995"/>
      <path id="Path_286" data-name="Path 286" d="M35.645,17.582A2.855,2.855,0,1,0,38.5,14.727a2.855,2.855,0,0,0-2.855,2.855" transform="translate(10.565 4.365)" fill="#138995"/>
      <path id="Path_287" data-name="Path 287" d="M35.645,2.855A2.855,2.855,0,1,0,38.5,0a2.855,2.855,0,0,0-2.855,2.855" transform="translate(10.565 0)" fill="#138995"/>
      <path id="Path_288" data-name="Path 288" d="M23.763,76.49a2.855,2.855,0,1,0,2.855-2.855,2.855,2.855,0,0,0-2.855,2.855" transform="translate(7.043 21.825)" fill="#138995"/>
      <path id="Path_289" data-name="Path 289" d="M23.763,61.763a2.855,2.855,0,1,0,2.855-2.855,2.855,2.855,0,0,0-2.855,2.855" transform="translate(7.043 17.46)" fill="#138995"/>
      <path id="Path_290" data-name="Path 290" d="M23.763,47.036a2.855,2.855,0,1,0,2.855-2.855,2.855,2.855,0,0,0-2.855,2.855" transform="translate(7.043 13.095)" fill="#138995"/>
      <path id="Path_291" data-name="Path 291" d="M23.763,32.309a2.855,2.855,0,1,0,2.855-2.855,2.855,2.855,0,0,0-2.855,2.855" transform="translate(7.043 8.73)" fill="#138995"/>
      <path id="Path_292" data-name="Path 292" d="M23.763,17.582a2.855,2.855,0,1,0,2.855-2.855,2.855,2.855,0,0,0-2.855,2.855" transform="translate(7.043 4.365)" fill="#138995"/>
      <path id="Path_293" data-name="Path 293" d="M23.763,2.855A2.855,2.855,0,1,0,26.618,0a2.855,2.855,0,0,0-2.855,2.855" transform="translate(7.043 0)" fill="#138995"/>
      <path id="Path_294" data-name="Path 294" d="M11.882,76.49a2.855,2.855,0,1,0,2.855-2.855,2.855,2.855,0,0,0-2.855,2.855" transform="translate(3.522 21.825)" fill="#138995"/>
      <path id="Path_295" data-name="Path 295" d="M11.882,61.763a2.855,2.855,0,1,0,2.855-2.855,2.855,2.855,0,0,0-2.855,2.855" transform="translate(3.522 17.46)" fill="#138995"/>
      <path id="Path_296" data-name="Path 296" d="M11.882,47.036a2.855,2.855,0,1,0,2.855-2.855,2.855,2.855,0,0,0-2.855,2.855" transform="translate(3.522 13.095)" fill="#138995"/>
      <path id="Path_297" data-name="Path 297" d="M11.882,32.309a2.855,2.855,0,1,0,2.855-2.855,2.855,2.855,0,0,0-2.855,2.855" transform="translate(3.522 8.73)" fill="#138995"/>
      <path id="Path_298" data-name="Path 298" d="M11.882,17.582a2.855,2.855,0,1,0,2.855-2.855,2.855,2.855,0,0,0-2.855,2.855" transform="translate(3.522 4.365)" fill="#138995"/>
      <path id="Path_299" data-name="Path 299" d="M11.882,2.855A2.855,2.855,0,1,0,14.737,0a2.855,2.855,0,0,0-2.855,2.855" transform="translate(3.522 0)" fill="#138995"/>
      <path id="Path_300" data-name="Path 300" d="M0,76.49a2.855,2.855,0,1,0,2.855-2.855A2.855,2.855,0,0,0,0,76.49" transform="translate(0 21.825)" fill="#138995"/>
      <path id="Path_301" data-name="Path 301" d="M0,61.763a2.855,2.855,0,1,0,2.855-2.855A2.855,2.855,0,0,0,0,61.763" transform="translate(0 17.46)" fill="#138995"/>
      <path id="Path_302" data-name="Path 302" d="M0,47.036a2.855,2.855,0,1,0,2.855-2.855A2.855,2.855,0,0,0,0,47.036" transform="translate(0 13.095)" fill="#138995"/>
      <path id="Path_303" data-name="Path 303" d="M0,32.309a2.855,2.855,0,1,0,2.855-2.855A2.855,2.855,0,0,0,0,32.309" transform="translate(0 8.73)" fill="#138995"/>
      <path id="Path_304" data-name="Path 304" d="M0,17.582a2.855,2.855,0,1,0,2.855-2.855A2.855,2.855,0,0,0,0,17.582" transform="translate(0 4.365)" fill="#138995"/>
      <path id="Path_305" data-name="Path 305" d="M0,2.855A2.855,2.855,0,1,0,2.855,0,2.855,2.855,0,0,0,0,2.855" transform="translate(0 0)" fill="#138995"/>
    </g>
  </g>
</svg>
