<svg xmlns="http://www.w3.org/2000/svg" xmlns:xlink="http://www.w3.org/1999/xlink" width="185.141" height="25.612" viewBox="0 0 185.141 25.612">
  <defs>
    <clipPath id="clip-path">
      <rect id="Rectangle_107" data-name="Rectangle 107" width="185.141" height="25.612" fill="#a8a7a7"/>
    </clipPath>
  </defs>
  <g id="Group_1075" data-name="Group 1075" clip-path="url(#clip-path)">
    <path id="Path_1966" data-name="Path 1966" d="M121.755,6.93a3.465,3.465,0,1,0-3.465-3.465A3.465,3.465,0,0,0,121.755,6.93Z" transform="translate(59.921)" fill="#a8a7a7"/>
    <path id="Path_1967" data-name="Path 1967" d="M121.755,19.33a3.465,3.465,0,1,1,3.465-3.465A3.466,3.466,0,0,1,121.755,19.33Z" transform="translate(59.921 6.281)" fill="#a8a7a7"/>
    <path id="Path_1968" data-name="Path 1968" d="M108.615,6.93a3.465,3.465,0,1,1,3.465-3.465A3.466,3.466,0,0,1,108.615,6.93Z" transform="translate(53.265)" fill="#a8a7a7"/>
    <path id="Path_1969" data-name="Path 1969" d="M108.615,19.33a3.465,3.465,0,1,1,3.465-3.465A3.466,3.466,0,0,1,108.615,19.33Z" transform="translate(53.265 6.281)" fill="#a8a7a7"/>
    <path id="Path_1970" data-name="Path 1970" d="M95.465,6.93A3.465,3.465,0,1,1,98.93,3.465,3.466,3.466,0,0,1,95.465,6.93Z" transform="translate(46.603)" fill="#a8a7a7"/>
    <path id="Path_1971" data-name="Path 1971" d="M95.465,19.33a3.465,3.465,0,1,1,3.465-3.465A3.466,3.466,0,0,1,95.465,19.33Z" transform="translate(46.603 6.281)" fill="#a8a7a7"/>
    <path id="Path_1972" data-name="Path 1972" d="M82.325,6.93A3.465,3.465,0,1,1,85.79,3.465,3.466,3.466,0,0,1,82.325,6.93Z" transform="translate(39.947)" fill="#a8a7a7"/>
    <path id="Path_1973" data-name="Path 1973" d="M82.325,19.33a3.465,3.465,0,1,1,3.465-3.465A3.466,3.466,0,0,1,82.325,19.33Z" transform="translate(39.947 6.281)" fill="#a8a7a7"/>
    <path id="Path_1974" data-name="Path 1974" d="M69.185,6.93A3.465,3.465,0,1,1,72.65,3.465,3.466,3.466,0,0,1,69.185,6.93Z" transform="translate(33.291)" fill="#a8a7a7"/>
    <path id="Path_1975" data-name="Path 1975" d="M69.185,19.33a3.465,3.465,0,1,1,3.465-3.465A3.466,3.466,0,0,1,69.185,19.33Z" transform="translate(33.291 6.281)" fill="#a8a7a7"/>
    <path id="Path_1976" data-name="Path 1976" d="M56.035,6.93A3.465,3.465,0,1,1,59.5,3.465,3.466,3.466,0,0,1,56.035,6.93Z" transform="translate(26.63)" fill="#a8a7a7"/>
    <path id="Path_1977" data-name="Path 1977" d="M56.035,19.33A3.465,3.465,0,1,1,59.5,15.865,3.466,3.466,0,0,1,56.035,19.33Z" transform="translate(26.63 6.281)" fill="#a8a7a7"/>
    <path id="Path_1978" data-name="Path 1978" d="M42.9,6.93A3.465,3.465,0,1,1,46.36,3.465,3.466,3.466,0,0,1,42.9,6.93Z" transform="translate(19.974)" fill="#a8a7a7"/>
    <path id="Path_1979" data-name="Path 1979" d="M42.9,19.33a3.465,3.465,0,1,1,3.465-3.465A3.466,3.466,0,0,1,42.9,19.33Z" transform="translate(19.974 6.281)" fill="#a8a7a7"/>
    <path id="Path_1980" data-name="Path 1980" d="M29.755,6.93A3.465,3.465,0,1,1,33.22,3.465,3.466,3.466,0,0,1,29.755,6.93Z" transform="translate(13.317)" fill="#a8a7a7"/>
    <path id="Path_1981" data-name="Path 1981" d="M29.755,19.33a3.465,3.465,0,1,1,3.465-3.465A3.466,3.466,0,0,1,29.755,19.33Z" transform="translate(13.317 6.281)" fill="#a8a7a7"/>
    <path id="Path_1982" data-name="Path 1982" d="M16.605,6.93A3.465,3.465,0,1,1,20.07,3.465,3.466,3.466,0,0,1,16.605,6.93Z" transform="translate(6.656)" fill="#a8a7a7"/>
    <path id="Path_1983" data-name="Path 1983" d="M16.605,19.33a3.465,3.465,0,1,1,3.465-3.465,3.466,3.466,0,0,1-3.465,3.465Z" transform="translate(6.656 6.281)" fill="#a8a7a7"/>
    <path id="Path_1984" data-name="Path 1984" d="M3.465,6.93A3.465,3.465,0,1,1,6.93,3.465,3.466,3.466,0,0,1,3.465,6.93Z" fill="#a8a7a7"/>
    <path id="Path_1985" data-name="Path 1985" d="M3.465,19.33A3.465,3.465,0,1,1,6.93,15.865,3.466,3.466,0,0,1,3.465,19.33Z" transform="translate(0 6.281)" fill="#a8a7a7"/>
  </g>
</svg>
