<svg xmlns="http://www.w3.org/2000/svg" width="27.722" height="20" viewBox="0 0 27.722 20">
  <path id="_95c7183c18fcf8ec541d425070875525" data-name="95c7183c18fcf8ec541d425070875525" d="M22.668,14.518c1.618-3.716.62-6.08-.192-7.218A5.654,5.654,0,0,0,17.021,5c-3.431.655-4.893,2.98-4.893,7.781v4.009l-2.006-2.006A.866.866,0,1,0,8.9,16.013L12.383,19.5a.931.931,0,0,0,1.268,0l3.5-3.5a.866.866,0,1,0-1.225-1.225l-2.069,2.067V12.785c0-5,1.72-5.742,3.483-6.08a3.932,3.932,0,0,1,3.72,1.6c1.164,1.627.941,4.04-.629,6.792a.866.866,0,0,0,.9,1.282,9.027,9.027,0,0,1,1.23-.132,3.466,3.466,0,0,1-.045,6.932l-17.2.01a4.4,4.4,0,0,1-3.592-4.342,4.336,4.336,0,0,1,3.718-4.262L6.2,14.48a.866.866,0,0,0,.743-.858L6.925,12.7c.005-3.1,1.918-5.653,4.553-6.064a.866.866,0,1,0-.269-1.712C7.727,5.467,5.2,8.736,5.193,12.7l.014.175A6.085,6.085,0,0,0,5.2,24.913H22.524a5.2,5.2,0,0,0,.144-10.4Z" transform="translate(0 -4.913)" fill="rgba(0,0,0,0.7)"/>
</svg>
