<svg xmlns="http://www.w3.org/2000/svg" xmlns:xlink="http://www.w3.org/1999/xlink" width="112" height="111" viewBox="0 0 112 111">
  <defs>
    <clipPath id="clip-path">
      <rect id="Rectangle_86" data-name="Rectangle 86" width="70" height="94" transform="translate(0.213 -0.089)" fill="none"/>
    </clipPath>
  </defs>
  <g id="Group_1079" data-name="Group 1079" transform="translate(-126)">
    <g id="Group_1033" data-name="Group 1033" transform="translate(126.404)">
      <g id="Rectangle_25" data-name="Rectangle 25" transform="translate(-0.404)" fill="#fff" stroke="#5cbf22" stroke-width="4">
        <rect width="112" height="111" rx="55" stroke="none"/>
        <rect x="2" y="2" width="108" height="107" rx="53" fill="none"/>
      </g>
    </g>
    <g id="Group_1027" data-name="Group 1027" transform="translate(147.787 9.089)">
      <g id="Group_1021" data-name="Group 1021" transform="translate(0 0)" clip-path="url(#clip-path)">
        <path id="Path_501" data-name="Path 501" d="M34.929,62.135c-.714-.379-1.5-1.148-2.122-1.033-.7.129-1.245,1.058-1.854,1.642-.586.562-1.167,1.128-1.75,1.693a1.513,1.513,0,0,1-.82-.569q-3.065-3.058-6.117-6.129c-.861-.87-.86-1.05-.016-1.91,1.165-1.188,2.333-2.374,3.531-3.528a1.061,1.061,0,0,0,.205-1.522,27.022,27.022,0,0,1-2.94-7.137.99.99,0,0,0-1.09-.821,3.964,3.964,0,0,1-2.187-.227l-4.032-.046a1.778,1.778,0,0,1-.316-1.351q-.015-5.152,0-10.3a1.777,1.777,0,0,1,.317-1.351l4.032-.046a3.965,3.965,0,0,1,2.187-.227.981.981,0,0,0,1.089-.822,26.133,26.133,0,0,1,2.943-7.134,1.115,1.115,0,0,0-.278-1.6c-1.221-1.179-2.4-2.4-3.608-3.6-.528-.523-.624-.99-.055-1.558,2.186-2.184,4.363-4.378,6.555-6.556a1.009,1.009,0,0,1,.6-.356c.991.972,2.013,1.915,2.959,2.929.46.494.81.563,1.352.157a11.218,11.218,0,0,1,1.415-.786c1.058.964,1.974.431,2.985-.174a23.537,23.537,0,0,1,5.849-2.306,1.243,1.243,0,0,0,1.078-1.431c-.044-1.56-.018-3.123-.009-4.685A1.7,1.7,0,0,1,45.1.1h9.786A1.685,1.685,0,0,1,55.15,1.36c.01,1.6.027,3.2-.006,4.8a1.132,1.132,0,0,0,.979,1.294,24.655,24.655,0,0,1,6.752,2.795A1.264,1.264,0,0,0,64.734,10c1.11-1.194,2.28-2.333,3.451-3.469.769-.747,1-.749,1.77.017q3.943,3.915,7.851,7.865c.765.774.763,1,.018,1.773-1.134,1.173-2.278,2.337-3.461,3.459a1.215,1.215,0,0,0-.29,1.769,26.245,26.245,0,0,1,2.867,6.954,1.042,1.042,0,0,0,1.161.879c1.663-.018,3.327-.011,4.991,0a1.526,1.526,0,0,1,1.159.26V42.581c-2.174,0-4.349.025-6.522-.016a.812.812,0,0,0-.962.744,26.807,26.807,0,0,1-3.237,7.777c-.3.5-.187.755.182,1.107,1.13,1.075,2.23,2.183,3.471,3.405-1.492.269-2.618,1.152-4.16.376a5,5,0,0,0-4.346.22,1.4,1.4,0,0,1-1.425.016,4.259,4.259,0,0,0-1.852-.5c-.564-.038-.752-.212-.733-.785.047-1.462.034-2.925.045-4.388a3.453,3.453,0,0,1,.692-1A18.768,18.768,0,0,0,70.913,35.82a18.906,18.906,0,0,0-9.252-16.275A19.952,19.952,0,0,0,50.828,16.6,18.836,18.836,0,0,0,34.3,22.477c-5.2,5.474-6.814,12.036-4.621,19.244C31.895,49.009,36.97,53.49,44.39,55.228a15.247,15.247,0,0,0,6.168.25c.825-.146,1.137.035,1.094.952-.078,1.664-.015,3.334-.029,5,0,.3.17.705-.391.765-3.381.36-5.236,2.411-6.094,5.554-.475-.48-.3-1.094-.279-1.642A1.287,1.287,0,0,0,43.751,64.6,22.177,22.177,0,0,1,37.2,61.865c-.944-.644-1.552-.1-2.274.27" transform="translate(-13.527 1.193)" fill="#32c8b3"/>
        <path id="Path_502" data-name="Path 502" d="M189.573,224.464a3.028,3.028,0,0,1,3.434-.18,3.219,3.219,0,0,1,1.678,3.038q-.025,5.4,0,10.791c0,.353-.154.752.182,1.055.234.258.166.571.158.873-.07,2.784-.014,5.568-.03,8.352,0,.136-.017-.032,0,.1.062.4-.143,1.039.48,1.056.646.018.5-.628.5-1.026.024-3.191.014-6.383.01-9.575a7.324,7.324,0,0,1,.1-1.418,3.211,3.211,0,0,1,4.731,1.128c.119.2.264.378.4.566a1.979,1.979,0,0,1,.3,1.455c.012,2.543,0,5.086.006,7.629a4.321,4.321,0,0,0,.012.61c.049.347-.051.847.49.845s.475-.5.477-.849c.027-3.323.013-6.645.011-9.968a7.317,7.317,0,0,1,.105-1.415,3.21,3.21,0,0,1,4.731,1.128c.119.2.265.378.4.566a1.979,1.979,0,0,1,.3,1.455c.012,2.543,0,5.086.006,7.629a4.354,4.354,0,0,0,.012.61c.05.347-.051.847.49.844s.474-.506.477-.85c.027-3.323.013-6.646.011-9.969a7.585,7.585,0,0,1,.1-1.416c2.487-1.47,5.1.058,5.106,3.02.018,5.745.006,11.49.006,17.235v11.83H189.786a1.611,1.611,0,0,1-.284-1.26,4.239,4.239,0,0,0-1.395-3.375c-1.055-1.059-2.1-2.133-3.172-3.173a6.06,6.06,0,0,1-1.922-4.271c-.111-4.318-.039-8.64-.035-12.96,0-.169.065-.333.071-.5a3.205,3.205,0,0,1,4.742,1.146c.1.168.23.318.346.477.59.753.229,1.64.347,2.459.071.489-.263,1.341.448,1.348.829.008.514-.889.516-1.39q.037-11.064.015-22.127a6.917,6.917,0,0,1,.112-1.52" transform="translate(-146.791 -176.822)" fill="#f0c79c"/>
        <path id="Path_504" data-name="Path 504" d="M177.889,322.858c.343.295.206.7.207,1.052.009,3.9,0,7.809.007,11.713a6.365,6.365,0,0,0,2.019,4.916c.746.691,1.388,1.5,2.173,2.142a5.884,5.884,0,0,1,2.332,5.721H183c0-.407-.026-.817,0-1.222a4.065,4.065,0,0,0-1.421-3.431c-1.254-1.187-2.457-2.435-3.613-3.719a6,6,0,0,1-1.5-4.206q.031-4.991,0-9.983a3.427,3.427,0,0,1,1.424-2.983" transform="translate(-141.632 -255.608)" fill="#d2a97f"/>
        <path id="Path_505" data-name="Path 505" d="M120.989.1c0,2.173-.025,4.345.016,6.517a.852.852,0,0,1-.753.987,28.784,28.784,0,0,0-7.84,3.244c-.982.587-1.074-.574-1.6-.893a24.885,24.885,0,0,1,6.2-2.4c.582-.149.732-.381.723-.948-.032-2.168-.013-4.337-.013-6.5Z" transform="translate(-89.411 1.193)" fill="#0aaa95"/>
        <path id="Path_506" data-name="Path 506" d="M156.39,158.679c.168.011.337.03.506.032,2.488.029,2.756.3,2.756,2.839,0,2.07,0,4.14,0,6.209,0,.425.023.709-.586.8a6.422,6.422,0,0,0-5.813,5.622c-.129.74-.378.9-1.079.89-2.606-.053-5.214-.039-7.822-.05a1.537,1.537,0,0,1-1.3-1.687c-.047-4.311-.054-8.621,0-12.932a1.936,1.936,0,0,1,1.222-1.843,2.256,2.256,0,0,1,.776-.134c3.209-.063,6.418-.052,9.627-.01a2.677,2.677,0,0,1,1.708.265" transform="translate(-115.026 -124.742)" fill="#fbb400"/>
        <path id="Path_507" data-name="Path 507" d="M188.531,80.077a10.776,10.776,0,0,1,5.287.368A19.125,19.125,0,0,1,206.71,90.511a18.622,18.622,0,0,1,2.025,11.324,19.237,19.237,0,0,1-6.321,12.17,12.455,12.455,0,0,0-.25-2.83,1.187,1.187,0,0,1,.28-1.029,19.529,19.529,0,0,0-12.119-29.729c-.591-.141-1.2-.228-1.793-.34" transform="translate(-151.23 -62.28)" fill="#0aaa95"/>
        <path id="Path_508" data-name="Path 508" d="M31.984,207.637c1.016.007,2.188-.3,3,.107.858.429.745,1.784,1.065,2.724a25.734,25.734,0,0,0,2.539,5.52c.4.629.222.918-.219,1.345-1.34,1.3-2.622,2.654-3.972,3.94-.469.448-.419.687.015,1.119,2.352,2.344,4.672,4.722,7,7.088-1.489,1.8-1.491,1.8-3.048.24-2.4-2.4-4.78-4.819-7.2-7.2-.494-.485-.557-.753-.019-1.259,1.359-1.278,2.628-2.651,3.981-3.936a.886.886,0,0,0,.18-1.342,26.6,26.6,0,0,1-3.325-8.352" transform="translate(-25.742 -163.85)" fill="#0aaa95"/>
        <path id="Path_509" data-name="Path 509" d="M41.33,31.159c-2.283,2.318-4.548,4.656-6.864,6.942-.556.549-.611.857-.011,1.414,1.316,1.223,2.539,2.545,3.833,3.793.446.43.6.718.214,1.346a25.317,25.317,0,0,0-3.122,7.565c-.134.567-.394.864-1.044.811-.808-.065-1.626-.023-2.439-.028a26.566,26.566,0,0,1,3.324-8.351.886.886,0,0,0-.178-1.342c-1.377-1.309-2.675-2.7-4.052-4.01-.476-.452-.412-.685.018-1.11q4.128-4.079,8.2-8.213c.395-.4.657-.486,1.032-.01.333.422.724.8,1.09,1.193" transform="translate(-25.654 -22.314)" fill="#0aaa95"/>
        <path id="Path_510" data-name="Path 510" d="M132.933,159.2a2.062,2.062,0,0,0-1.042,2.03q.049,6.1,0,12.2a2.106,2.106,0,0,0,1.031,2.04c-.883.011-1.766.046-2.648.026a1.529,1.529,0,0,1-1.624-1.681q-.019-6.484,0-12.969a1.555,1.555,0,0,1,1.728-1.683c.509-.014,1.018-.022,1.527-.033a.713.713,0,0,1,1.029.069" transform="translate(-103.59 -125.192)" fill="#dd9600"/>
        <path id="Path_511" data-name="Path 511" d="M3.8,143.971v13.006c-1.044.033-2.372.436-3.049-.129-.644-.538-.188-1.91-.2-2.914-.026-3.053.009-6.107-.024-9.16-.007-.651.15-.906.834-.849.807.066,1.623.035,2.435.046" transform="translate(-1.591 -113.237)" fill="#0aaa95"/>
        <path id="Path_512" data-name="Path 512" d="M145.605,121.831l-1.029-.069c0-1.63-.019-3.259.007-4.888a4.878,4.878,0,0,1,4.84-4.877q1.677-.035,3.355,0a4.877,4.877,0,0,1,4.841,4.877c.027,1.629.007,3.259.007,4.888h-1.632a1.674,1.674,0,0,1-.291-1.254c-.014-1.154.026-2.31-.015-3.463a2.979,2.979,0,0,0-3.163-3.117c-.982-.025-1.966-.032-2.948,0a2.954,2.954,0,0,0-3.057,3.012c-.056,1.221,0,2.444-.02,3.667a1.533,1.533,0,0,1-.291,1.152l-.6.07" transform="translate(-116.262 -87.824)" fill="#505050"/>
        <path id="Path_513" data-name="Path 513" d="M209.734,226.91c.32.261.209.625.209.95q.008,11.767.011,23.534c0,.628.021,1.1-.87,1.086s-.767-.538-.769-1.08c0-1.087-.011-2.173-.018-3.26.006-6.086.023-12.171.011-18.257a3.3,3.3,0,0,1,1.426-2.974" transform="translate(-166.952 -179.268)" fill="#d2a97f"/>
        <path id="Path_514" data-name="Path 514" d="M110.811,299.5c.251-.276.509-.545.751-.828.269-.315.5-.306.864-.078a27.753,27.753,0,0,0,7.851,3.267A.84.84,0,0,1,121,302.87c-.044.745.009,1.495.02,2.243-.011,1.188-.048,2.375-.021,3.562.012.532-.148.677-.682.693-2.592.078-2.591.1-2.591-2.435,0-1.256-.056-2.515.02-3.766.05-.816-.181-1.176-1.01-1.365a22.068,22.068,0,0,1-5.923-2.306" transform="translate(-89.409 -236.168)" fill="#0aaa95"/>
        <path id="Path_515" data-name="Path 515" d="M273.558,290.855c.323.259.212.624.213.949.007,3.569,0,7.137.009,10.706,0,.576.048,1.05-.8,1.049-.812,0-.842-.406-.838-1.018.022-3.331.019-6.661.026-9.992a4.6,4.6,0,0,1,1.4-1.695" transform="translate(-217.732 -230.146)" fill="#d2a97f"/>
        <path id="Path_516" data-name="Path 516" d="M305.448,290.847c.323.258.214.623.214.949.007,3.569,0,7.138.009,10.707,0,.574.051,1.052-.8,1.05-.811,0-.844-.4-.84-1.017.022-3.331.02-6.662.026-9.993a4.614,4.614,0,0,1,1.394-1.7" transform="translate(-243.099 -230.139)" fill="#d2a97f"/>
        <path id="Path_517" data-name="Path 517" d="M241.65,290.855c.295.225.214.552.214.847,0,3.567,0,7.134.01,10.7,0,.584-.048.958-.8.95-.688-.007-.857-.259-.851-.9.026-2.921,0-5.843.02-8.764a8.066,8.066,0,0,1,.181-1.2,2.705,2.705,0,0,1,1.224-1.636" transform="translate(-192.348 -230.146)" fill="#d2a97f"/>
        <path id="Path_519" data-name="Path 519" d="M160.557,179.241a3.217,3.217,0,0,1,2.416-3.137,3.26,3.26,0,0,1,3.623,1.4,3.081,3.081,0,0,1-.426,3.919,2.18,2.18,0,0,0-.725,1.954,4.536,4.536,0,0,1-.019,1.016,1.627,1.627,0,0,1-3.219-.013,4.237,4.237,0,0,1-.016-1.016,1.952,1.952,0,0,0-.75-1.943,2.578,2.578,0,0,1-.885-2.184" transform="translate(-128.978 -138.749)" fill="#bf7900"/>
      </g>
    </g>
  </g>
</svg>
