<svg xmlns="http://www.w3.org/2000/svg" width="112" height="111" viewBox="0 0 112 111">
  <g id="Group_1032" data-name="Group 1032" transform="translate(0.404)">
    <g id="Rectangle_25" data-name="Rectangle 25" transform="translate(-0.404)" fill="#fff" stroke="#5cbf22" stroke-width="3">
      <rect width="112" height="111" rx="55" stroke="none"/>
      <rect x="1.5" y="1.5" width="109" height="108" rx="53.5" fill="none"/>
    </g>
    <g id="Group_1031" data-name="Group 1031" transform="translate(20.203 21.825)">
      <g id="Group_1012" data-name="Group 1012" transform="translate(0 0)">
        <path id="Path_382" data-name="Path 382" d="M.1,79.7a.14.14,0,0,1,.194.006,3.229,3.229,0,0,0,2.07,1.9,1.934,1.934,0,0,1,.255,1.371q.009,11.428,0,22.855,0,6.249,0,12.5a7.3,7.3,0,0,0,.108,1.493,1.984,1.984,0,0,0,1.883,1.754,8.036,8.036,0,0,0,1.073.034q8.345,0,16.691.006c.44,0,.919-.106,1.283.274a1.094,1.094,0,0,1-.058.9c-1.339,3.967-2.764,7.9-4.134,11.859-.428,1.236-.888,2.462-1.287,3.707a1.934,1.934,0,0,0,1.256,2.633,2,2,0,0,0,2.451-1.421c.612-1.625,1.152-3.276,1.73-4.913,1.418-4.014,2.812-8.038,4.232-12.052.125-.353.194-.752.62-.905a26.924,26.924,0,0,1,4.771.025.448.448,0,0,1,.2.178,2.8,2.8,0,0,1,.123,1.193q.005,7.547,0,15.093c0,.237,0,.475,0,.712a2.033,2.033,0,0,0,1.929,2.3c1.432-.258,1.914-.831,1.917-2.359.01-5.261,0-10.523.008-15.784a2.019,2.019,0,0,1,.188-1.248.837.837,0,0,1,.531-.171c1.442,0,2.886-.086,4.326.044.406.114.507.468.628.8.992,2.756,1.931,5.53,2.913,8.289,1.038,2.916,2.035,5.846,3.078,8.761a1.982,1.982,0,0,0,2.7,1.372,1.962,1.962,0,0,0,1.007-2.591c-.374-1.154-.791-2.3-1.194-3.441q-2.133-6.064-4.256-12.132a1.027,1.027,0,0,1-.032-.832c.357-.4.837-.289,1.276-.29q8.23-.012,16.461-.005c.286,0,.573,0,.859,0a2.191,2.191,0,0,0,2.438-2.3c.027-.356.017-.713.017-1.07q0-17.589,0-35.179a2.1,2.1,0,0,1,.246-1.442,1.836,1.836,0,0,1,.69-.325,2.62,2.62,0,0,0,1.386-1.584.142.142,0,0,1,.2-.007" transform="translate(-0.096 -68.273)" fill="#fefefe"/>
        <path id="Path_385" data-name="Path 385" d="M246.049.107a2.42,2.42,0,0,1,1.582,2.714c-.041.424-.012.856-.016,1.284a2.559,2.559,0,0,1-2.182.027,7.337,7.337,0,0,1-.178-2.659,1.852,1.852,0,0,1,.221-1.366Z" transform="translate(-210.084 -0.107)" fill="#53433f"/>
        <path id="Path_386" data-name="Path 386" d="M233.982.107q0,1.99,0,3.981a2.469,2.469,0,0,1-2.14.021c0-.379.019-.762-.02-1.138A2.566,2.566,0,0,1,233.409.107Z" transform="translate(-198.59 -0.107)" fill="#735d55"/>
        <path id="Path_387" data-name="Path 387" d="M.1,41l.139,0a.912.912,0,0,1,.227.725q.023,2.064,0,4.127a.907.907,0,0,1-.228.724l-.138,0Z" transform="translate(-0.097 -35.142)" fill="#f9f5f2"/>
        <path id="Path_388" data-name="Path 388" d="M491.491,40.969l.135.006v5.572a.975.975,0,0,1-.131.008.882.882,0,0,1-.236-.722q-.025-2.069,0-4.139a.9.9,0,0,1,.232-.725" transform="translate(-420.841 -35.118)" fill="#efe6e1"/>
        <path id="Path_389" data-name="Path 389" d="M267.318,91.5c-.388.23-.3.609-.3.957q0,18.175.009,36.349c0,1.956-.854,3-2.988,2.987-5.825-.047-11.651-.018-17.477-.009-.272,0-.656-.173-.76.3-1.218-.137-2.44-.07-3.661-.085a1.657,1.657,0,0,1-1.018-.207l-5.064-.008c-.68.4-1.423.155-2.137.206-.716-.05-1.461.2-2.143-.206l-.045-.006c.125-.4.48-.356.771-.359,1.115-.01,1.184.058,1.184-1.285q0-11.532,0-23.063,0-7.176,0-14.352a1.927,1.927,0,0,1,.209-1.243,1.512,1.512,0,0,1,1.028-.216q15.687-.007,31.375,0a1.271,1.271,0,0,1,1.013.239" transform="translate(-198.531 -78.2)" fill="#eee1da"/>
        <path id="Path_390" data-name="Path 390" d="M47.461,91.5q0,19.684.019,39.368c0,.653-.2.813-.813.783a2.136,2.136,0,0,0-1.389.13l-5,.008a1.573,1.573,0,0,1-.952.213c-1.251.011-2.5-.044-3.752.077-.109-.472-.494-.288-.764-.289Q26,131.773,17.2,131.78c-1.979,0-2.831-.869-2.831-2.906q0-16.171,0-32.342c0-1.4,0-2.808,0-4.212,0-.315.018-.623-.292-.822a1.188,1.188,0,0,1,.943-.234q15.749-.009,31.5,0a1.687,1.687,0,0,1,.839.136l.1.1" transform="translate(-12.072 -78.206)" fill="#fef4f3"/>
        <path id="Path_391" data-name="Path 391" d="M267.308,37.22l-33.4,0h0a1.549,1.549,0,0,1-.22-1.087c-.006-2.272,0-4.545,0-6.817,0-.971-.023-.974-.993-1.023-.353-.018-.784.106-.967-.372l.054.011,2.14-.021,2.135.017q15.394,0,30.789.007a2.132,2.132,0,0,1,2.329,1.846q0,2.793,0,5.586a2.044,2.044,0,0,1-1.867,1.858" transform="translate(-198.521 -23.924)" fill="#ddc7be"/>
        <path id="Path_392" data-name="Path 392" d="M34.126,27.97c.481.32,1.019.147,1.524.138.547-.009.68.18.676.7-.024,2.821-.014,5.642-.015,8.463l-33.384,0a2.088,2.088,0,0,1-1.866-1.86V29.836a2.2,2.2,0,0,1,2.492-1.853H33.2c.31,0,.62-.008.93-.012" transform="translate(-0.923 -23.98)" fill="#eee1da"/>
        <path id="Path_393" data-name="Path 393" d="M129.666,374.284a.587.587,0,0,1,.56-.336c1.381.031,2.763.033,4.144.046q-3.084,8.806-6.169,17.612c-.479,1.368-1.462,2.029-2.615,1.773a2.148,2.148,0,0,1-1.525-2.946c1.354-3.9,2.73-7.8,4.09-11.7.515-1.478,1.01-2.964,1.514-4.446" transform="translate(-106.162 -320.414)" fill="#735d55"/>
        <path id="Path_394" data-name="Path 394" d="M297.239,374.148c1.374-.006,2.747,0,4.12-.026a.572.572,0,0,1,.559.318q1.76,5.078,3.521,10.156c.709,2.04,1.441,4.073,2.132,6.12a2.14,2.14,0,0,1-2.892,2.666,2.165,2.165,0,0,1-1.188-1.354q-3.122-8.941-6.253-17.879" transform="translate(-254.644 -320.563)" fill="#53433f"/>
        <path id="Path_395" data-name="Path 395" d="M245.6,374.261l2.135-.012q.005,8.734.006,17.468a2.043,2.043,0,0,1-2.14,2.077,1.2,1.2,0,0,1-.234-.939q-.009-8.827,0-17.654a1.234,1.234,0,0,1,.234-.941" transform="translate(-210.2 -320.672)" fill="#53433f"/>
        <path id="Path_396" data-name="Path 396" d="M234.162,374.266q0,9.766,0,19.533a2.108,2.108,0,0,1-2.15-2.241q-.007-8.652,0-17.3l2.145.012" transform="translate(-198.766 -320.676)" fill="#735d55"/>
        <path id="Path_397" data-name="Path 397" d="M278.405,211.286c2.743,0,5.486-.013,8.229.005A2.126,2.126,0,0,1,288.813,214a2.217,2.217,0,0,1-2.366,1.567c-2.576.007-5.152,0-7.728,0-2.815,0-5.629.012-8.444,0a2.155,2.155,0,0,1-2.2-2.968,2.1,2.1,0,0,1,2.1-1.315q4.115.008,8.229,0" transform="translate(-229.505 -181.041)" fill="#53433f"/>
        <path id="Path_398" data-name="Path 398" d="M278.464,265.886q-4.043,0-8.087,0a2.151,2.151,0,0,1-2.389-2.093,2.193,2.193,0,0,1,2.389-2.189q8.123-.01,16.245,0a2.159,2.159,0,0,1,2.325,1.868,2.126,2.126,0,0,1-1.476,2.324,2.873,2.873,0,0,1-.92.089q-4.044,0-8.087,0" transform="translate(-229.585 -224.152)" fill="#53433f"/>
        <path id="Path_399" data-name="Path 399" d="M278.423,165.013c-2.768,0-5.535.011-8.3-.006a2.132,2.132,0,0,1-.553-4.2,3.074,3.074,0,0,1,.778-.075q8.088-.006,16.175,0a2.159,2.159,0,1,1-.01,4.284q-4.044.006-8.088,0" transform="translate(-229.55 -137.727)" fill="#53433f"/>
        <path id="Path_400" data-name="Path 400" d="M80.918,168.844A10.449,10.449,0,0,1,87.734,153.4,6.321,6.321,0,0,1,90,153.2a.844.844,0,0,1,.236.716c.01,3.075.025,6.15-.006,9.226a1.442,1.442,0,0,1-.039.279c-.058.286-.285.421-.512.556-2.7,1.6-5.437,3.152-8.166,4.708-.179.1-.353.262-.592.157" transform="translate(-68.091 -131.244)" fill="#eb000d"/>
        <path id="Path_401" data-name="Path 401" d="M89.578,231.35l9.062-5.214a.82.82,0,0,1,.666.177c2.607,1.5,5.225,2.988,7.822,4.509.218.127.488.213.56.507a9.949,9.949,0,0,1-6.432,4.929,10.411,10.411,0,0,1-11.678-4.908" transform="translate(-76.751 -193.75)" fill="#fed500"/>
        <path id="Path_402" data-name="Path 402" d="M161.845,169.037l-9.048-5.192q.008-5.214.017-10.427a9.735,9.735,0,0,1,6.468,2.2,10.4,10.4,0,0,1,2.9,12.883c-.1.188-.222.36-.334.54" transform="translate(-130.908 -131.457)" fill="#00a9fe"/>
      </g>
    </g>
  </g>
</svg>
