<svg width="1426" height="996" viewBox="0 0 1426 996" fill="none" xmlns="http://www.w3.org/2000/svg">
<g opacity="0.221" filter="url(#filter0_f_2_9)">
<path d="M1234.52 640.855C1428.37 640.855 1585.52 483.707 1585.52 289.855C1585.52 96.0029 1428.37 -61.1451 1234.52 -61.1451C1040.66 -61.1451 883.515 96.0029 883.515 289.855C883.515 483.707 1040.66 640.855 1234.52 640.855Z" fill="#E8AC28"/>
</g>
<g filter="url(#filter1_f_2_9)">
<path opacity="0.186" fill-rule="evenodd" clip-rule="evenodd" d="M543.434 -21.7073C673.654 -68.8444 825.29 -76.4497 936.313 -23.4129C1044.37 28.2026 1065.76 139.772 1093.39 241.004C1121.4 343.603 1147.98 447.888 1093.37 551.866C1028.01 676.316 930.036 811.28 771.654 853.608C612.738 896.076 466.283 821.004 338.827 753.518C224.3 692.881 112.028 614.4 102.562 499.346C93.781 392.623 213.803 303.902 294.036 209.077C367.824 121.87 425.195 21.0916 543.434 -21.7073Z" fill="#5CBF22"/>
</g>
<defs>
<filter id="filter0_f_2_9" x="809.515" y="-135.145" width="850" height="850" filterUnits="userSpaceOnUse" color-interpolation-filters="sRGB">
<feFlood flood-opacity="0" result="BackgroundImageFix"/>
<feBlend mode="normal" in="SourceGraphic" in2="BackgroundImageFix" result="shape"/>
<feGaussianBlur stdDeviation="37" result="effect1_foregroundBlur_2_9"/>
</filter>
<filter id="filter1_f_2_9" x="28.1061" y="-134.206" width="1171.02" height="1074.19" filterUnits="userSpaceOnUse" color-interpolation-filters="sRGB">
<feFlood flood-opacity="0" result="BackgroundImageFix"/>
<feBlend mode="normal" in="SourceGraphic" in2="BackgroundImageFix" result="shape"/>
<feGaussianBlur stdDeviation="37" result="effect1_foregroundBlur_2_9"/>
</filter>
</defs>
</svg>
