<svg xmlns="http://www.w3.org/2000/svg" width="42" height="41" viewBox="0 0 42 41">
  <g id="Group_974" data-name="Group 974" transform="translate(-0.229 -0.231)">
    <ellipse id="Ellipse_58" data-name="Ellipse 58" cx="21" cy="20.5" rx="21" ry="20.5" transform="translate(0.229 0.231)" fill="#58c22c"/>
    <g id="Icon_ionic-logo-instagram" data-name="Icon ionic-logo-instagram" transform="translate(11.746 11.472)">
      <path id="Path_24" data-name="Path 24" d="M17.637,6.045A3.875,3.875,0,0,1,21.5,9.909v7.727A3.875,3.875,0,0,1,17.637,21.5H9.909a3.875,3.875,0,0,1-3.864-3.864V9.909A3.875,3.875,0,0,1,9.909,6.045h7.727m0-1.545H9.909A5.425,5.425,0,0,0,4.5,9.909v7.727a5.425,5.425,0,0,0,5.409,5.409h7.727a5.425,5.425,0,0,0,5.409-5.409V9.909A5.425,5.425,0,0,0,17.637,4.5Z" transform="translate(-4.5 -4.5)" fill="#fff"/>
      <path id="Path_25" data-name="Path 25" d="M24.784,11.318a1.159,1.159,0,1,1,1.159-1.159A1.156,1.156,0,0,1,24.784,11.318Z" transform="translate(-10.488 -5.909)" fill="#fff"/>
      <path id="Path_26" data-name="Path 26" d="M15.886,12.8A3.091,3.091,0,1,1,12.8,15.886,3.094,3.094,0,0,1,15.886,12.8m0-1.545a4.636,4.636,0,1,0,4.636,4.636,4.638,4.638,0,0,0-4.636-4.636Z" transform="translate(-6.614 -6.614)" fill="#fff"/>
    </g>
  </g>
</svg>
