<svg width="28" height="22" viewBox="0 0 28 22" fill="none" xmlns="http://www.w3.org/2000/svg">
<path d="M26.6875 0.5H1.31248C0.843537 0.5 0.410332 0.749387 0.175781 1.15413C-0.0585938 1.55907 -0.0585938 2.05766 0.175781 2.4624C0.410352 2.86733 0.843532 3.11653 1.31248 3.11653H26.6875C27.1565 3.11653 27.5897 2.86733 27.8242 2.4624C28.0586 2.05765 28.0586 1.55907 27.8242 1.15413C27.5896 0.749387 27.1565 0.5 26.6875 0.5Z" fill="black"/>
<path d="M26.6875 18.8835H1.31248C0.843537 18.8835 0.410332 19.1327 0.175781 19.5376C-0.0585938 19.9424 -0.0585938 20.4409 0.175781 20.8459C0.410352 21.2506 0.843532 21.5 1.31248 21.5H26.6875C27.1565 21.5 27.5897 21.2506 27.8242 20.8459C28.0586 20.4409 28.0586 19.9423 27.8242 19.5376C27.5896 19.1327 27.1565 18.8835 26.6875 18.8835Z" fill="black"/>
<path d="M26.6875 9.69174H1.31248C0.843537 9.69174 0.410332 9.94112 0.175781 10.3459C-0.0585938 10.7506 -0.0585938 11.2494 0.175781 11.6541C0.410352 12.0589 0.843532 12.3083 1.31248 12.3083H26.6875C27.1565 12.3083 27.5897 12.0589 27.8242 11.6541C28.0586 11.2494 28.0586 10.7506 27.8242 10.3459C27.5896 9.94112 27.1565 9.69174 26.6875 9.69174Z" fill="black"/>
</svg>