<svg xmlns="http://www.w3.org/2000/svg" width="714.5" height="504.25" viewBox="0 0 714.5 504.25">
  <text id="Product_Management_Programs" data-name="Product Management Programs" transform="translate(339 49)" font-size="45" font-family="SegoeUI-Bold, Segoe UI" font-weight="700"><tspan x="-338.511" y="0">Product Management Programs</tspan></text>
  <g id="Component_34_1" data-name="Component 34 – 1" transform="translate(17 113.25)">
    <text id="Design_Thinking" data-name="Design Thinking" transform="translate(198.5 38)" fill="rgba(0,0,0,0.7)" font-size="30" font-family="SegoeUI, Segoe UI"><tspan x="0" y="0">Design Thinking</tspan></text>
    <line id="Line_11" data-name="Line 11" x2="697.5" transform="translate(0 81.5)" fill="none" stroke="#acacac" stroke-width="1"/>
    <g id="_21690d989852d6098016da75e48d9781" data-name="21690d989852d6098016da75e48d9781" transform="translate(108.482 -1032.512)">
      <circle id="Ellipse_87" data-name="Ellipse 87" cx="30" cy="30" r="30" transform="translate(-4.482 1032.512)" fill="#50b748"/>
      <path id="Path_2045" data-name="Path 2045" d="M16.931,1A15.931,15.931,0,1,0,32.863,16.931,15.949,15.949,0,0,0,16.931,1Zm0,2.276A13.655,13.655,0,1,1,3.276,16.931,13.637,13.637,0,0,1,16.931,3.276Zm7.16,7.16L13.517,21.007,9.774,17.264,8.16,18.875l5.357,5.355L25.7,12.047l-1.614-1.611Z" transform="translate(8.243 1045.238)" fill="#fff"/>
    </g>
  </g>
  <g id="Component_34_1-2" data-name="Component 34 – 1" transform="translate(16.75 216.25)">
    <text id="Agile_Execution" data-name="Agile Execution" transform="translate(198.5 38)" fill="rgba(0,0,0,0.7)" font-size="30" font-family="SegoeUI, Segoe UI"><tspan x="0" y="0">Agile Execution</tspan></text>
    <line id="Line_11-2" data-name="Line 11" x2="697.5" transform="translate(0 81.5)" fill="none" stroke="#acacac" stroke-width="1"/>
    <g id="_21690d989852d6098016da75e48d9781-2" data-name="21690d989852d6098016da75e48d9781" transform="translate(108.482 -1032.512)">
      <circle id="Ellipse_87-2" data-name="Ellipse 87" cx="30" cy="30" r="30" transform="translate(-4.482 1032.512)" fill="#50b748"/>
      <path id="Path_2045-2" data-name="Path 2045" d="M16.931,1A15.931,15.931,0,1,0,32.863,16.931,15.949,15.949,0,0,0,16.931,1Zm0,2.276A13.655,13.655,0,1,1,3.276,16.931,13.637,13.637,0,0,1,16.931,3.276Zm7.16,7.16L13.517,21.007,9.774,17.264,8.16,18.875l5.357,5.355L25.7,12.047l-1.614-1.611Z" transform="translate(8.243 1045.238)" fill="#fff"/>
    </g>
  </g>
  <g id="Component_34_1-3" data-name="Component 34 – 1" transform="translate(16.75 319.25)">
    <text id="Product_Design" data-name="Product Design" transform="translate(198.5 38)" fill="rgba(0,0,0,0.7)" font-size="30" font-family="SegoeUI, Segoe UI"><tspan x="0" y="0">Product Design</tspan></text>
    <line id="Line_11-3" data-name="Line 11" x2="697.5" transform="translate(0 81.5)" fill="none" stroke="#acacac" stroke-width="1"/>
    <g id="_21690d989852d6098016da75e48d9781-3" data-name="21690d989852d6098016da75e48d9781" transform="translate(108.482 -1032.512)">
      <circle id="Ellipse_87-3" data-name="Ellipse 87" cx="30" cy="30" r="30" transform="translate(-4.482 1032.512)" fill="#50b748"/>
      <path id="Path_2045-3" data-name="Path 2045" d="M16.931,1A15.931,15.931,0,1,0,32.863,16.931,15.949,15.949,0,0,0,16.931,1Zm0,2.276A13.655,13.655,0,1,1,3.276,16.931,13.637,13.637,0,0,1,16.931,3.276Zm7.16,7.16L13.517,21.007,9.774,17.264,8.16,18.875l5.357,5.355L25.7,12.047l-1.614-1.611Z" transform="translate(8.243 1045.238)" fill="#fff"/>
    </g>
  </g>
  <g id="Component_34_1-4" data-name="Component 34 – 1" transform="translate(16.75 422.25)">
    <text id="Integrated_Product_Leadership" data-name="Integrated Product Leadership" transform="translate(198.5 38)" fill="rgba(0,0,0,0.7)" font-size="30" font-family="SegoeUI, Segoe UI"><tspan x="0" y="0">Integrated Product Leadership</tspan></text>
    <line id="Line_11-4" data-name="Line 11" x2="697.5" transform="translate(0 81.5)" fill="none" stroke="#acacac" stroke-width="1"/>
    <g id="_21690d989852d6098016da75e48d9781-4" data-name="21690d989852d6098016da75e48d9781" transform="translate(108.482 -1032.512)">
      <circle id="Ellipse_87-4" data-name="Ellipse 87" cx="30" cy="30" r="30" transform="translate(-4.482 1032.512)" fill="#50b748"/>
      <path id="Path_2045-4" data-name="Path 2045" d="M16.931,1A15.931,15.931,0,1,0,32.863,16.931,15.949,15.949,0,0,0,16.931,1Zm0,2.276A13.655,13.655,0,1,1,3.276,16.931,13.637,13.637,0,0,1,16.931,3.276Zm7.16,7.16L13.517,21.007,9.774,17.264,8.16,18.875l5.357,5.355L25.7,12.047l-1.614-1.611Z" transform="translate(8.243 1045.238)" fill="#fff"/>
    </g>
  </g>
</svg>
