<svg id="Group_1081" data-name="Group 1081" xmlns="http://www.w3.org/2000/svg" width="112" height="111" viewBox="0 0 112 111">
  <g id="Group_1033" data-name="Group 1033" transform="translate(126.404)">
    <g id="Rectangle_25" data-name="Rectangle 25" transform="translate(-126.404)" fill="#fff" stroke="#5cbf22" stroke-width="4">
      <rect width="112" height="111" rx="55" stroke="none"/>
      <rect x="2" y="2" width="108" height="107" rx="53" fill="none"/>
    </g>
  </g>
  <g id="Group_1025" data-name="Group 1025" transform="translate(27.273 23.129)">
    <g id="Group_1017" data-name="Group 1017" transform="translate(0 0)">
      <path id="Path_415" data-name="Path 415" d="M138.057.113a13.544,13.544,0,0,0,2.429.375,32.482,32.482,0,0,1,13.243,5.2,3.635,3.635,0,0,1,.3.252,1.876,1.876,0,0,1-1.275.2q-16.684.009-33.368,0c-.529,0-1.057.007-1.586,0a1.033,1.033,0,0,1-.747-.2,29.554,29.554,0,0,1,7.622-3.956A31.158,31.158,0,0,1,132.76.241c.107-.008.223,0,.271-.128h1.191a1.355,1.355,0,0,0,.926,0h.794a1.355,1.355,0,0,0,.926,0Z" transform="translate(-101.681 -0.113)" fill="#feaf00"/>
      <path id="Path_416" data-name="Path 416" d="M439.6,354.668c1.141.436,2.279.878,3.423,1.306.966.362.969.356.218,1.106l-1.3,1.3a.486.486,0,0,0,0,.792q1.084,1.04,2.161,2.088v.4c-1.73,1.783-1.231,1.587-2.791.1q-.478-.455-.934-.933a.54.54,0,0,0-.9.012c-.411.429-.839.841-1.26,1.26-.73.727-.738.72-1.111-.269-.455-1.209-.827-2.451-1.377-3.624a6.492,6.492,0,0,1-.836-1.919c-.374-.984-.759-1.966-1.085-2.967-.2-.6.028-.863.591-.673,1.665.56,3.308,1.182,4.946,1.816a.741.741,0,0,1,.254.206" transform="translate(-376.374 -305.901)" fill="#283b7e"/>
      <path id="Path_417" data-name="Path 417" d="M260.413.113a.763.763,0,0,1-.926,0Z" transform="translate(-225.227 -0.113)" fill="#febb25"/>
      <path id="Path_418" data-name="Path 418" d="M247.443.113a.763.763,0,0,1-.926,0Z" transform="translate(-213.977 -0.113)" fill="#febb25"/>
      <path id="Path_419" data-name="Path 419" d="M16.467,44.111c.241.012.483.033.724.033q17.763,0,35.527,0c.241,0,.483-.022.724-.033l5.814.036c.242,0,.486-.01.726.01a1.5,1.5,0,0,1,1.579,1.7c.017,2.133.021,4.267.031,6.4a4.971,4.971,0,0,1,.171,1.433q-.008,9.6-.007,19.195a2.1,2.1,0,0,1-.171,1.221,5.184,5.184,0,0,1-2.594.116c-.276-.027-.372-.279-.4-.54-.026-.285-.017-.571-.017-.857q0-11.973,0-23.947a2.185,2.185,0,0,0-.128-1.036.873.873,0,0,0-.8-.588,6.625,6.625,0,0,0-.99-.038H5.951c-1.7,0-1.735.033-1.735,1.734q0,12.447,0,24.894c0,1.416.065,1.481,1.5,1.481q17.486,0,34.972,0a2.291,2.291,0,0,1,1.291.167,5.705,5.705,0,0,1,.012,2.986,1.4,1.4,0,0,1-.889.178q-18.529.006-37.058,0a2.331,2.331,0,0,1-.263-.019c-.647.026-1.295.014-1.942.008a.959.959,0,0,1-.729-.2c-.007-.242-.019-.483-.019-.725q0-15.751,0-31.5c0-1.611.468-2.079,2.087-2.08q6.215,0,12.43,0c.286,0,.572-.022.858-.034" transform="translate(-1.091 -38.283)" fill="#435ca1"/>
      <path id="Path_420" data-name="Path 420" d="M99.887,371.152a32.242,32.242,0,0,1-26.769,12.363c-11.484-.631-20.288-5.934-26.465-15.611a1.1,1.1,0,0,1-.075-.183,1.048,1.048,0,0,1,.864-.226q7.652-.01,15.3,0a1.389,1.389,0,0,1,.827.165.962.962,0,0,1,.2.681q.023,2.276,0,4.552a1.072,1.072,0,0,1-.154.631,1.2,1.2,0,0,1-.868.2c-.894.006-1.787.01-2.68,0-.7-.028-1.408,0-2.113,0a.711.711,0,0,0-.806.813c0,.638-.019,1.277.005,1.914s.193.806.852.825c.682.02,1.365.023,2.049,0q11.4-.012,22.807,0c1.489,0,1.519-.031,1.52-1.512,0-.4.014-.793-.008-1.188-.037-.651-.187-.817-.845-.831-1.41-.029-2.821,0-4.231-.015a2.316,2.316,0,0,1-1.352-.179,1.173,1.173,0,0,1-.176-.754q-.013-2.169,0-4.338a1.26,1.26,0,0,1,.162-.759.9.9,0,0,1,.675-.192,10.806,10.806,0,0,1,2.788.131c.274.257.184.6.21.914a7.2,7.2,0,0,0,.126,2.046.844.844,0,0,0,.806.35c.681,0,1.362.023,2.044-.012,4.77-.013,9.539-.006,14.308,0,.344,0,.712-.061,1,.222" transform="translate(-40.547 -318.821)" fill="#feaf00"/>
      <path id="Path_421" data-name="Path 421" d="M40.075,312.112l-16.675,0c-.109,0-.219.016-.328.024l-2.6-.037a1.467,1.467,0,0,1-.986-1.487c-.017-2.174-.01-4.349,0-6.523a.934.934,0,0,1,.2-.679l38.22,0c.231.2.2.477.2.735q.009,3.619,0,7.239c0,.258.035.535-.2.734l-3.44.005a.958.958,0,0,1-.738.212c-3.661,0-7.322.029-10.983-.013-.646.027-1.293.014-1.939.008a.947.947,0,0,1-.724-.21" transform="translate(-17.042 -263.232)" fill="#283b7e"/>
      <path id="Path_422" data-name="Path 422" d="M343.762,114.853l-8.439-.027q-3.495-.01-6.989-.016a.838.838,0,0,1-.59-.857q-.012-.263-.013-.527,0-6.852,0-13.7c0-.579-.01-1.162.6-1.495a2.861,2.861,0,0,1,1.109-.113q5.616,0,11.232,0c1.065,0,1.074-.008,1.074-1.057q0-11.912.006-23.823c0-.4-.117-.846.243-1.182a1.4,1.4,0,0,1,.076.775q.006,12.349-.01,24.7c0,.614.119.879.787.816s1.365-.026,2.048-.032a3.849,3.849,0,0,1,2.321-.086.8.8,0,0,1,.6.72,4.339,4.339,0,0,1,.05.854c0,2.242-.006,4.483,0,6.725a6.946,6.946,0,0,1-.189,1.893q-.017,1.438-.034,2.875c-1.672-.6-3.343-1.2-5.018-1.784-.211-.074-.462-.317-.658-.108s.039.449.114.667c.544,1.594,1.224,3.14,1.693,4.761l-.014.027" transform="translate(-284.421 -62.522)" fill="#58c0d9"/>
      <path id="Path_423" data-name="Path 423" d="M3.757,303.407c0,2.174.038,4.349-.013,6.522A2.448,2.448,0,0,0,4.55,312.1c-.68.006-1.36.034-2.038.014a1.309,1.309,0,0,1-1.39-1.346c-.008-2.453.007-4.907.014-7.36l2.621,0" transform="translate(-1.116 -263.233)" fill="#192965"/>
      <path id="Path_424" data-name="Path 424" d="M459.968,137.547q-.008-4.5-.017-9.006c0-.931-.146-1.074-1.056-1.081-.57,0-1.14-.012-1.711-.019q0-10.676,0-21.351c0-.153.019-.306.029-.459a31,31,0,0,1,5.008,11.458,32.139,32.139,0,0,1-1.912,19.821c-.094.221-.225.425-.339.637" transform="translate(-396.71 -91.655)" fill="#feaf00"/>
      <path id="Path_425" data-name="Path 425" d="M77.69,67.042c-.011.263-.032.526-.032.789q0,12.375.013,24.749c0,.617-.176.755-.768.753-4.294-.018-8.589,0-12.883.007a3.824,3.824,0,0,1-1.675.166c-.368.022-.753-.035-1.028.3-.266.266-.03.71-.339.96q-18.483,0-36.966,0c-.772,0-.986-.213-.987-.974q0-13.276,0-26.553c0-.728.2-.923.946-.955.132-.006.265,0,.4,0q25.988,0,51.977,0c.573,0,1.264-.145,1.345.756" transform="translate(-20.115 -57.514)" fill="#edf5fe"/>
      <path id="Path_426" data-name="Path 426" d="M309.245,274.373c.078-.35-.1-.734.138-1.063a1.088,1.088,0,0,1,.218.869q.01,7,0,14a1.117,1.117,0,0,1-.213.872,4.824,4.824,0,0,1-.124-1.8c-.033-.415-.017-.833-.023-1.25q0-4.354,0-8.708,0-1.461,0-2.923" transform="translate(-268.383 -237.125)" fill="#27a6ac"/>
      <path id="Path_427" data-name="Path 427" d="M161.87,411.663q2.808,0,5.615,0c.83,0,1.008.18,1.012,1,0,.726,0,1.452,0,2.177a.7.7,0,0,1-.767.784c-.088,0-.176,0-.264,0H144.279c-.132,0-.263-.014-.395-.021a.866.866,0,0,1-.581-.918q-.011-1.043,0-2.085a.865.865,0,0,1,.582-.918l3.578-.021c.4-.315.867-.19,1.309-.206s.9-.017,1.356.009c3.666-.041,7.333-.012,11-.014a1,1,0,0,1,.742.206" transform="translate(-124.443 -356.967)" fill="#283b7e"/>
      <path id="Path_428" data-name="Path 428" d="M204.993,375l-11.758,0a.993.993,0,0,1-.216-.736q-.013-2.165,0-4.33a1,1,0,0,1,.215-.737l11.75-.007q0,2.906.009,5.812" transform="translate(-167.566 -320.302)" fill="#435ca1"/>
      <path id="Path_429" data-name="Path 429" d="M310.328,286.564l-.006-15.743c.118-.322.379-.384.682-.38.741.009,1.482.014,2.222.021a1.372,1.372,0,0,0-.393,1.066q.021,7.168,0,14.335a1.277,1.277,0,0,0,.4,1.061l-2.225.028a.625.625,0,0,1-.681-.388" transform="translate(-269.322 -234.636)" fill="#1ca4a5"/>
      <path id="Path_430" data-name="Path 430" d="M177.362,369.169q0,2.9,0,5.8l-2.649.007q.007-2.91.013-5.82l2.634.01" transform="translate(-151.695 -320.279)" fill="#2c4a8a"/>
      <path id="Path_431" data-name="Path 431" d="M127.826,413.131a1.293,1.293,0,0,0-.4,1.112,13.255,13.255,0,0,1,0,1.7,1.3,1.3,0,0,0,.4,1.112c-.767.007-1.533.018-2.3.02a.66.66,0,0,1-.733-.732q-.016-1.248,0-2.5a.66.66,0,0,1,.734-.731c.767,0,1.533.013,2.3.02" transform="translate(-108.384 -358.41)" fill="#192965"/>
      <path id="Path_432" data-name="Path 432" d="M217.384,326.166a1.77,1.77,0,0,1-1.809-1.829,1.859,1.859,0,0,1,1.834-1.846,1.911,1.911,0,0,1,1.8,1.9,1.806,1.806,0,0,1-1.825,1.776" transform="translate(-187.137 -279.79)" fill="#435ca1"/>
      <path id="Path_433" data-name="Path 433" d="M253.213,117.082a7.254,7.254,0,0,1,1.9-.063c6.186.115,12.373.015,18.559.048,1.088.006,1.165.077,1.165,1.166q0,4.355,0,8.709c0,.906-.12,1.022-1.042,1.023q-7.993,0-15.986,0c-1.32,0-2.64.039-3.96.053a1.152,1.152,0,0,1-.646-.069c.391-.36.875-.184,1.32-.223.239-.021.482.006.736.006a1.114,1.114,0,0,1-.235-.847c0-3.025-.035-6.051.026-9.076.009-.436-.131-.515-.514-.52-.446-.006-.929.141-1.323-.212" transform="translate(-219.776 -101.508)" fill="#feaf00"/>
      <path id="Path_434" data-name="Path 434" d="M74.763,121.86c.21-.18.464-.108.7-.107q7.371.009,14.741.03a4.241,4.241,0,0,1,.591.043.684.684,0,0,1,.664.752q-.006,5.58,0,11.159a.683.683,0,0,1-.665.751,4.319,4.319,0,0,1-.591.042q-7.371.019-14.741.03c-.235,0-.488.071-.7-.1.414-.372.923-.218,1.389-.215.434,0,.582-.061.574-.57q-.087-5.507,0-11.015c.007-.493-.118-.588-.568-.582-.467.006-.975.156-1.391-.212" transform="translate(-64.992 -105.629)" fill="#58c0d9"/>
      <path id="Path_435" data-name="Path 435" d="M71.474,122.66h2.211v12.595H71.471a.658.658,0,0,1-.5-.743q0-5.557,0-11.113a.65.65,0,0,1,.505-.739" transform="translate(-61.703 -106.429)" fill="#1ca4a5"/>
      <path id="Path_436" data-name="Path 436" d="M249.072,117.7h2.088v10.872h-2.1c-.484-.013-.633-.309-.633-.738q0-4.7,0-9.406c0-.432.159-.722.642-.728" transform="translate(-215.636 -102.125)" fill="#fe9500"/>
      <path id="Path_437" data-name="Path 437" d="M253.243,215.531c-.9,0-1.8.007-2.7,0a.985.985,0,1,1-.084-1.968q2.8-.038,5.606,0a1.087,1.087,0,0,1,1.087,1.027,1.008,1.008,0,0,1-1.135.942c-.923.01-1.847,0-2.77,0" transform="translate(-216.56 -185.274)" fill="#c1dcf4"/>
      <path id="Path_438" data-name="Path 438" d="M253.289,236.511c.9,0,1.8-.006,2.7,0,.712.007,1.17.405,1.162.986a1.111,1.111,0,0,1-1.137.986q-2.737.027-5.474,0a.99.99,0,1,1,.041-1.974c.9-.006,1.8,0,2.7,0" transform="translate(-216.562 -205.198)" fill="#c1dcf4"/>
      <path id="Path_439" data-name="Path 439" d="M367.524,215.528c-.879,0-1.758.009-2.637,0a.939.939,0,0,1-1.056-.932,1.036,1.036,0,0,1,.991-1.034q2.7-.039,5.4,0a.962.962,0,0,1,.933,1.053.974.974,0,0,1-1.066.913c-.857.007-1.714,0-2.571,0" transform="translate(-315.735 -185.271)" fill="#c1dcf4"/>
      <path id="Path_440" data-name="Path 440" d="M367.558,236.512c.837,0,1.675-.006,2.512,0a.987.987,0,1,1,.045,1.971c-1.741.021-3.482.018-5.223,0a1.072,1.072,0,0,1-1.1-1.011,1.027,1.027,0,0,1,1.119-.962c.881-.008,1.763,0,2.644,0" transform="translate(-315.704 -205.2)" fill="#c1dcf4"/>
      <path id="Path_441" data-name="Path 441" d="M315.328,215.517c-.637,0-1.274.006-1.911,0a.987.987,0,1,1-.073-1.971q2.043-.038,4.086,0a1.1,1.1,0,0,1,1.117,1c-.007.586-.456.962-1.176.97-.681.008-1.362,0-2.043,0" transform="translate(-271.077 -185.26)" fill="#c1dcf4"/>
      <path id="Path_442" data-name="Path 442" d="M315.408,236.5c.681,0,1.362-.011,2.043,0a.992.992,0,0,1,1.083.924,1.076,1.076,0,0,1-1,1.035q-2.141.054-4.283,0a.959.959,0,0,1-.909-1.074.977.977,0,0,1,1.024-.888c.681-.01,1.362,0,2.043,0" transform="translate(-271.071 -205.19)" fill="#c1dcf4"/>
      <path id="Path_443" data-name="Path 443" d="M48.1,85.927c.483-.006.965-.014,1.448-.017a.712.712,0,0,1,.82.8q0,1.25,0,2.5a.711.711,0,0,1-.82.8L48.1,89.985a.889.889,0,0,1-.575-.941q-.008-1.089,0-2.177a.89.89,0,0,1,.576-.94" transform="translate(-41.366 -74.546)" fill="#4cb9f0"/>
      <path id="Path_444" data-name="Path 444" d="M213.715,83.931c.483-.006.965-.014,1.448-.018a.712.712,0,0,1,.82.8q0,1.25,0,2.5a.711.711,0,0,1-.82.8c-.483-.005-.965-.012-1.448-.019a.889.889,0,0,1-.575-.941q-.008-1.089,0-2.177a.89.89,0,0,1,.576-.94" transform="translate(-185.021 -72.814)" fill="#4cb9f0"/>
      <path id="Path_445" data-name="Path 445" d="M48.1,223.527l1.445-.016a.707.707,0,0,1,.817.8c0,.832,0,1.665,0,2.5a.725.725,0,0,1-.823.8c-.482,0-.964-.009-1.446-.014a.85.85,0,0,1-.569-.875c-.013-.748-.007-1.5,0-2.245a.911.911,0,0,1,.58-.943" transform="translate(-41.361 -193.922)" fill="#4cb9f0"/>
      <path id="Path_446" data-name="Path 446" d="M213.715,223.527l1.445-.016a.707.707,0,0,1,.817.8c0,.832,0,1.665,0,2.5a.725.725,0,0,1-.823.8c-.482,0-.964-.009-1.446-.014a.85.85,0,0,1-.569-.875c-.013-.748-.007-1.5,0-2.245a.911.911,0,0,1,.58-.943" transform="translate(-185.016 -193.922)" fill="#4cb9f0"/>
      <path id="Path_447" data-name="Path 447" d="M397.25,85.386c0,1.344,0,1.344-1.513,1.343-1.175,0-1.259-.095-1.258-1.42,0-1.285.08-1.355,1.534-1.354,1.177,0,1.238.071,1.238,1.431" transform="translate(-342.321 -72.85)" fill="#f08301"/>
      <path id="Path_448" data-name="Path 448" d="M369.315,85.391c0,1.328-.012,1.339-1.451,1.339-1.246,0-1.321-.081-1.32-1.425,0-1.284.078-1.351,1.538-1.35,1.172,0,1.233.073,1.233,1.436" transform="translate(-318.09 -72.85)" fill="#f08301"/>
      <path id="Path_449" data-name="Path 449" d="M339.983,86.73c-1.294,0-1.374-.08-1.374-1.371,0-1.334.074-1.4,1.484-1.4,1.251,0,1.288.044,1.287,1.513,0,1.227-.039,1.261-1.4,1.261" transform="translate(-293.858 -72.85)" fill="#f08301"/>
      <path id="Path_450" data-name="Path 450" d="M39.865,223.472a1.347,1.347,0,0,0-.4,1.117,16.261,16.261,0,0,1,0,1.826,1.337,1.337,0,0,0,.389,1.12c-1.832.084-1.833.083-1.833-1.746,0-.482.011-.965,0-1.447-.017-.6.241-.911.857-.894l.986.024" transform="translate(-33.125 -193.867)" fill="#0d98d8"/>
      <path id="Path_451" data-name="Path 451" d="M205.478,223.472a1.347,1.347,0,0,0-.4,1.117,16.268,16.268,0,0,1,0,1.826,1.337,1.337,0,0,0,.389,1.12c-1.832.084-1.833.083-1.833-1.746,0-.482.011-.965,0-1.447-.017-.6.241-.911.857-.894l.986.024" transform="translate(-176.78 -193.867)" fill="#0d98d8"/>
      <path id="Path_452" data-name="Path 452" d="M39.867,85.927a1.332,1.332,0,0,0-.392,1.117,16.352,16.352,0,0,1,0,1.824,1.333,1.333,0,0,0,.391,1.117c-1.835.086-1.835.086-1.835-1.733,0-.482-.006-.964,0-1.446.011-.675.229-.888.914-.9.307,0,.613.011.92.017" transform="translate(-33.132 -74.546)" fill="#0c98d8"/>
      <path id="Path_453" data-name="Path 453" d="M205.476,83.932a1.333,1.333,0,0,0-.392,1.117,16.381,16.381,0,0,1,0,1.824,1.332,1.332,0,0,0,.391,1.117c-1.836.086-1.836.086-1.836-1.733,0-.482-.007-.964,0-1.446.011-.675.23-.888.914-.9.307,0,.613.011.92.017" transform="translate(-176.782 -72.815)" fill="#0c98d8"/>
      <path id="Path_454" data-name="Path 454" d="M213.462,192.3c0-.066,0-.132,0-.2,0-.847.327-1.323.916-1.351.646-.031,1.051.492,1.067,1.388a3.18,3.18,0,0,1-.1,1.043.893.893,0,0,1-1.035.71.907.907,0,0,1-.844-.933c-.011-.219,0-.439,0-.658h-.006" transform="translate(-185.304 -165.501)" fill="#64cbfe"/>
      <path id="Path_455" data-name="Path 455" d="M213.462,158.385c0-.066,0-.132,0-.2,0-.846.329-1.323.919-1.349.614-.028,1.041.5,1.063,1.324a3.259,3.259,0,0,1-.1,1.108.893.893,0,0,1-1.037.708.907.907,0,0,1-.842-.935c-.011-.219,0-.439,0-.659h-.006" transform="translate(-185.304 -136.079)" fill="#64cbfe"/>
      <path id="Path_456" data-name="Path 456" d="M43.857,158.4c0-.11,0-.22,0-.329.009-.742.337-1.2.892-1.243s1.038.447,1.083,1.166a3.442,3.442,0,0,1-.082,1.241.9.9,0,0,1-1.083.728.913.913,0,0,1-.806-.969c0-.2,0-.4,0-.593h0" transform="translate(-38.186 -136.073)" fill="#64cbfe"/>
      <path id="Path_457" data-name="Path 457" d="M213.461,124.5c0-.11,0-.22,0-.329.009-.767.378-1.25.953-1.249s.992.491,1.025,1.228a3.432,3.432,0,0,1-.083,1.175.9.9,0,0,1-1.079.733.911.911,0,0,1-.81-.965c0-.2,0-.4,0-.593Z" transform="translate(-185.303 -106.657)" fill="#64cbfe"/>
      <path id="Path_458" data-name="Path 458" d="M43.857,124.509c0-.11,0-.22,0-.329.009-.77.372-1.251.948-1.254s1,.483,1.03,1.222a3.448,3.448,0,0,1-.082,1.175.957.957,0,0,1-1.891-.221c0-.2,0-.4,0-.593h0" transform="translate(-38.187 -106.658)" fill="#64cbfe"/>
      <path id="Path_459" data-name="Path 459" d="M45.834,192.476a2.082,2.082,0,0,1-.116.873A.881.881,0,0,1,44.7,194a.891.891,0,0,1-.838-.866c-.033-.415-.008-.834-.014-1.251a.911.911,0,0,1,.848-1,.925.925,0,0,1,1.058.776,3.037,3.037,0,0,1,.075.816" transform="translate(-38.18 -165.608)" fill="#64cbfe"/>
      <path id="Path_460" data-name="Path 460" d="M176.754,232.507c-1.062,0-1.548-.314-1.543-1s.487-.985,1.555-.985c.175,0,.351-.008.526,0a.989.989,0,1,1-.012,1.976c-.175.011-.351,0-.526,0" transform="translate(-152.125 -200.005)" fill="#64cbfe"/>
      <path id="Path_461" data-name="Path 461" d="M108.87,232.444a5.117,5.117,0,0,1-.526,0,.981.981,0,0,1-.925-1,.946.946,0,0,1,.907-.954,7.885,7.885,0,0,1,1.183-.008.985.985,0,1,1,.018,1.97c-.218.017-.438,0-.657,0Z" transform="translate(-93.319 -199.948)" fill="#64cbfe"/>
      <path id="Path_462" data-name="Path 462" d="M75.008,232.508c-1.069,0-1.551-.3-1.557-.982s.479-1,1.541-1c.175,0,.351-.008.526,0a.989.989,0,1,1,.016,1.976c-.175.012-.351,0-.526,0" transform="translate(-63.858 -200.006)" fill="#64cbfe"/>
      <path id="Path_463" data-name="Path 463" d="M142.869,232.526c-1.076,0-1.552-.3-1.565-.973-.014-.7.475-1.009,1.595-1.009,1.076,0,1.53.3,1.522,1.006s-.449.976-1.551.976" transform="translate(-122.713 -200.023)" fill="#64cbfe"/>
      <path id="Path_464" data-name="Path 464" d="M176.754,96.813c-.153,0-.307.006-.46,0a.99.99,0,1,1,0-1.975c.328-.014.658-.015.986,0a.988.988,0,0,1,1.078.988c0,.578-.405.954-1.076.989-.175.009-.351,0-.526,0" transform="translate(-152.152 -82.281)" fill="#64cbfe"/>
      <path id="Path_465" data-name="Path 465" d="M142.9,94.877a3.374,3.374,0,0,1,.656.007.943.943,0,0,1,.882.971.919.919,0,0,1-.881.968,6.2,6.2,0,0,1-1.247.016.993.993,0,0,1-.987-1.014,1.006,1.006,0,0,1,.984-.955c.2-.015.394,0,.592,0v.009" transform="translate(-122.729 -82.314)" fill="#64cbfe"/>
      <path id="Path_466" data-name="Path 466" d="M108.931,94.886a3.245,3.245,0,0,1,.721.009.94.94,0,0,1,.841,1.006.914.914,0,0,1-.857.923,6.109,6.109,0,0,1-1.247.021,1,1,0,0,1-1.015-.991,1.014,1.014,0,0,1,1.03-.98c.175-.01.351,0,.526,0v.014" transform="translate(-93.283 -82.319)" fill="#64cbfe"/>
      <path id="Path_467" data-name="Path 467" d="M75.056,94.877a3.374,3.374,0,0,1,.656.007.943.943,0,0,1,.882.971.919.919,0,0,1-.881.968,6.2,6.2,0,0,1-1.247.016.993.993,0,0,1-.987-1.014,1.006,1.006,0,0,1,.984-.955c.2-.015.394,0,.592,0v.009" transform="translate(-63.882 -82.314)" fill="#64cbfe"/>
    </g>
  </g>
</svg>
