<svg xmlns="http://www.w3.org/2000/svg" width="41" height="41" viewBox="0 0 41 41">
  <g id="Group_973" data-name="Group 973" transform="translate(-0.447 -0.231)">
    <circle id="Ellipse_59" data-name="Ellipse 59" cx="20.5" cy="20.5" r="20.5" transform="translate(0.447 0.231)" fill="#58c22c"/>
    <path id="Icon_awesome-pinterest-p" data-name="Icon awesome-pinterest-p" d="M9.017.457C4.482.457,0,3.481,0,8.374c0,3.112,1.75,4.88,2.811,4.88.438,0,.69-1.22.69-1.565,0-.411-1.048-1.286-1.048-3A5.974,5.974,0,0,1,8.659,2.619c3.01,0,5.238,1.711,5.238,4.854,0,2.347-.942,6.75-3.992,6.75a1.963,1.963,0,0,1-2.042-1.936c0-1.671,1.167-3.289,1.167-5.013,0-2.926-4.151-2.4-4.151,1.14A5.193,5.193,0,0,0,5.3,10.655c-.61,2.626-1.857,6.538-1.857,9.243,0,.835.119,1.658.2,2.493.15.168.075.15.305.066C6.18,19.407,6.1,18.81,7.108,14.819a3.585,3.585,0,0,0,3.063,1.591c4.694,0,6.8-4.575,6.8-8.7C16.974,3.321,13.181.457,9.017.457Z" transform="translate(12.271 9.258)" fill="#fff"/>
  </g>
</svg>
