<svg xmlns="http://www.w3.org/2000/svg" width="112" height="111" viewBox="0 0 112 111">
  <g id="Group_1030" data-name="Group 1030" transform="translate(0.404)">
    <g id="Rectangle_25" data-name="Rectangle 25" transform="translate(-0.404)" fill="#fff" stroke="#5cbf22" stroke-width="3">
      <rect width="112" height="111" rx="55" stroke="none"/>
      <rect x="1.5" y="1.5" width="109" height="108" rx="53.5" fill="none"/>
    </g>
    <g id="Group_1028" data-name="Group 1028" transform="translate(15.703 19.921)">
      <g id="Group_1009" data-name="Group 1009" transform="translate(0 0)">
        <path id="Path_338" data-name="Path 338" d="M140.2,29.164v.154a1.08,1.08,0,0,1-.248.157,40.535,40.535,0,0,1-4.5.07c-.692.029-1.386.021-2.078.008-.546-.01-.819.2-.793.767.011.23,0,.462,0,.693q0,14.294-.009,28.588a5.182,5.182,0,0,0,.478,2.309c.809,1.69,1.6,3.389,2.36,5.1a4.389,4.389,0,0,0,1.031,1.324,2.207,2.207,0,0,1,.152,1.056q.005,3.658,0,7.317c0,.334-.044.665-.066,1a3.6,3.6,0,0,1-3.889,3.383c-9.618-.059-19.238-.026-28.857-.028a7.973,7.973,0,0,0-1.607.115.247.247,0,0,1-.289-.193c-.133-1.17-1.049-1.841-1.681-2.7-.3-.4-.865-.736-.733-1.289a6.249,6.249,0,0,1,.927-2.178,1.139,1.139,0,0,1,.981-.363c.722,0,1.428-.146,2.145-.189,1.051-.064,1.478-.52,1.489-1.559q.022-2.08,0-4.16c-.012-1.01-.431-1.479-1.426-1.535-.743-.042-1.474-.192-2.221-.193a1.482,1.482,0,0,1-1.337-.953,2.367,2.367,0,0,1,.569-3.362,5.764,5.764,0,0,0,.791-.941,1.506,1.506,0,0,0-.048-2.1,37.1,37.1,0,0,0-3-2.99,1.491,1.491,0,0,0-2.1-.007c-.664.525-1.3,1.083-1.956,1.621a1.15,1.15,0,0,1-1.2.171c-1.419-.432-2.365-1.148-2.149-2.825a6.217,6.217,0,0,0-.1-1.069c-.058-1.029-.452-1.524-1.484-1.633a20.288,20.288,0,0,0-4.3,0c-1.025.11-1.416.6-1.482,1.64-.047.743-.149,1.48-.2,2.222A1.406,1.406,0,0,1,81.845,57.9a.357.357,0,0,1-.342-.256,3.954,3.954,0,0,1-.094-1.225q0-11.635,0-23.27a2.938,2.938,0,0,1,.14-1.29c.228-.318.578-.291.905-.3.665-.02,1.331,0,2-.009a2.88,2.88,0,0,0,3.129-3.1c.029-2.177.008-4.355.008-6.532A2.464,2.464,0,0,1,87.654,21a1.637,1.637,0,0,1,1.244-.258q10.113-.01,20.226-.005c7.588,0,15.176.015,22.764-.01a1.7,1.7,0,0,1,.533.049c.272.175.189.449.18.694-.041,1.072-.036,2.143.025,3.213-.085,1.172-.025,2.345-.047,3.518-.01.519.211.735.729.729.764-.009,1.529-.02,2.294.008a38.74,38.74,0,0,1,4.351.068,1.04,1.04,0,0,1,.248.158" transform="translate(-69.045 -17.6)" fill="#f0e7da"/>
        <path id="Path_340" data-name="Path 340" d="M38.626,262.618c-1.4-.607-1.351-1.929-1.317-3.075a2.036,2.036,0,0,0-1.777-2.42c-.311-.063-.549-.408-.922-.242a14.372,14.372,0,0,1-5.81-5.817,7.917,7.917,0,0,0-.869-2.361c-.06-.168-.581-.17-.889-.248a.938.938,0,0,0,.376-1.126,14.125,14.125,0,0,1,0-5.81.938.938,0,0,0-.376-1.126c.27-.255.807.073.938-.311a8.124,8.124,0,0,0,.821-2.3,14.163,14.163,0,0,1,5.064-5.37c.24-.151.459-.328.687-.495.4-.034.712-.4,1.147-.31a2.025,2.025,0,0,1,.364-.117c.968-.125,1.206-.742,1.19-1.622a15.909,15.909,0,0,1,.163-2.069,1.468,1.468,0,0,1,1.427-1.454,26.516,26.516,0,0,1,4.761-.007c.973.082,1.409.641,1.487,1.646.061.793.136,1.584.182,2.378.03.511.281.731.737,1,1.312.785,2.242.492,3.295-.545,1.952-1.923,2.513-1.541,4.146.177.654.688,1.349,1.337,2.009,2.021a1.651,1.651,0,0,1,.1,2.523c-.553.675-1.1,1.353-1.684,2a.6.6,0,0,0-.113.81,2.832,2.832,0,0,1,.4.91c.157.921.72,1.173,1.574,1.16a17.607,17.607,0,0,1,2.067.161,1.5,1.5,0,0,1,1.5,1.618q.03,2.2,0,4.391A1.531,1.531,0,0,1,57.7,248.27q-1.226.1-2.453.192c-.47.035-.849.169-.924.72a.937.937,0,0,1-.159.43c-.769,1-.389,1.795.419,2.546.317.295.548.68.849.994a2.076,2.076,0,0,1,.64,1.74c.173.454-.152.74-.4,1-.955,1.036-1.937,2.05-2.989,2.988a1.9,1.9,0,0,1-2.71,0c-.555-.454-1.113-.906-1.649-1.381A1.207,1.207,0,0,0,47,257.3a1.877,1.877,0,0,0-1.594,2.208,8.457,8.457,0,0,1-.13,1.373,1.547,1.547,0,0,1-1.766,1.655c-1.579.049-3.159-.1-4.734.079Z" transform="translate(-23.084 -191.385)" fill="#3ebce9"/>
        <path id="Path_342" data-name="Path 342" d="M435.04,48.594l-4.472-.01a.7.7,0,0,1-.205-.478,24.6,24.6,0,0,1,.071-4.01.508.508,0,0,1,.189-.222,17.257,17.257,0,0,1,4.326-.06,1.046,1.046,0,0,1,.245.157v.154a27.123,27.123,0,0,0-.082,3.186,4.214,4.214,0,0,1-.073,1.281" transform="translate(-364.04 -37.034)" fill="#e5eff5"/>
        <path id="Path_343" data-name="Path 343" d="M459.649,108.141l-.06.022-.064,0c-.318-.27-.278-.649-.278-1q-.012-14.911,0-29.821a1.3,1.3,0,0,1,.235-.948l.169-.013Z" transform="translate(-388.495 -64.661)" fill="#fed7a4"/>
        <path id="Path_345" data-name="Path 345" d="M107.951,460.913q-.012.066-.019.132H103c.144-.211.365-.152.562-.152,1.462,0,2.925.013,4.387.02" transform="translate(-87.306 -389.811)" fill="#98daf3"/>
        <path id="Path_346" data-name="Path 346" d="M460.832,50.883c0-1.25,0-2.5,0-3.751,0-.245-.084-.517.151-.717v4.471l-.154,0" transform="translate(-389.832 -39.323)" fill="#f1f6f9"/>
        <path id="Path_347" data-name="Path 347" d="M459.277,23.3a.183.183,0,0,1,.128.019v3.392l-.159,0a4.838,4.838,0,0,1,.031-3.408" transform="translate(-388.251 -19.77)" fill="#f9b0a2"/>
        <path id="Path_348" data-name="Path 348" d="M433.973.47q.008.064.014.127a.752.752,0,0,1-1.107,0c0-.042.009-.085.015-.127Z" transform="translate(-366.208 -0.47)" fill="#fbc0b4"/>
        <path id="Path_349" data-name="Path 349" d="M434.124,76.332q.008,15.347.016,30.694c0,.359.018.717.028,1.075l-2.342,5.059a24.092,24.092,0,0,1-1.594-3.14,8.453,8.453,0,0,1-.982-4.431c.048-9.292.022-18.584.028-27.877a1.975,1.975,0,0,1,.249-1.405l4.6.023" transform="translate(-363.139 -64.602)" fill="#feb14b"/>
        <path id="Path_350" data-name="Path 350" d="M414.2,76.037q0,15.561,0,31.122c0,1.048.715,1.843,1.072,2.766a19.994,19.994,0,0,1,1.23,2.965c-.4.762-.453,1.747-1.385,2.17a1.164,1.164,0,0,1-.94-.8c-.939-2.052-1.9-4.1-2.853-6.14a2.209,2.209,0,0,1-.191-.969q.006-15.187-.009-30.374c0-.6.146-.832.77-.785.766.058,1.538.033,2.308.044" transform="translate(-347.814 -64.33)" fill="#f29b33"/>
        <path id="Path_351" data-name="Path 351" d="M57.639,117c-.351.155-.638.5-1.087.36-.685-.14-1.087-.694-1.575-1.109a16.519,16.519,0,0,0-1.963-1.382q0-11.6.005-23.19c0-.293-.119-.622.151-.875a29.307,29.307,0,0,1,3.919-.063.7.7,0,0,1,.555.224q0,13.017,0,26.035" transform="translate(-45.025 -76.778)" fill="#efdac4"/>
        <path id="Path_352" data-name="Path 352" d="M346.015,108.256c.007-.976.011-1.952.023-2.928.01-.837.224-1.063,1.039-1.07q1.656-.015,3.312,0c.8.008,1.037.253,1.037,1.079q.007,9.019,0,18.039c0,.8-.267,1.071-1.056,1.073-1.437,0-2.875-.012-4.312-.019-.279-.262-.229-.61-.23-.937q-.008-7.177,0-14.354a1.362,1.362,0,0,1,.188-.883" transform="translate(-292.606 -88.229)" fill="#f56347"/>
        <path id="Path_353" data-name="Path 353" d="M310.946,134.429c0-1.05.019-2.1.005-3.151-.009-.71.312-1.031,1.022-1.022,1.407.018,2.815.015,4.222.02a1.194,1.194,0,0,1,.073.677c0,4.877-.01,9.754.018,14.63,0,.641-.169.834-.807.8-1.509-.07-3.023.047-4.533-.061a1.392,1.392,0,0,1-.236-1.023q-.011-4.925,0-9.851a1.446,1.446,0,0,1,.237-1.025" transform="translate(-262.913 -110.221)" fill="#f9d362"/>
        <path id="Path_354" data-name="Path 354" d="M281.456,157.209q.008,5.935.015,11.869c.056.04.07.071.044.092a.109.109,0,0,1-.071.025l-5.373,0a1.007,1.007,0,0,1-.235-.787c-.016-2.128-.012-4.257,0-6.385a1.221,1.221,0,0,1,.211-.8c.009-1,.034-2,.023-3-.008-.708.3-1.034,1.014-1.025,1.459.018,2.917.011,4.376.014" transform="translate(-233.423 -133.002)" fill="#88ca1e"/>
        <path id="Path_355" data-name="Path 355" d="M58.611,34.078c-1.252,0-2.5,0-3.756-.007-.245,0-.519.084-.717-.154,1.093-1.115,2.175-2.24,3.28-3.342q3.589-3.58,7.2-7.141c.252.228.148.529.149.8.008,2.156-.027,4.312.014,6.467a3.166,3.166,0,0,1-3.4,3.388c-.918-.071-1.845-.011-2.768-.01" transform="translate(-45.992 -19.889)" fill="#e5cebb"/>
        <path id="Path_356" data-name="Path 356" d="M264.695,317.409c-2.769,0-5.538.007-8.306,0-1,0-1.568-.766-1.222-1.611a1.072,1.072,0,0,1,1.088-.7q8.422,0,16.843.006a1.1,1.1,0,0,1,1.158,1.159A1.126,1.126,0,0,1,273,317.406c-2.769.009-5.538,0-8.306,0" transform="translate(-215.87 -266.529)" fill="#9998a0"/>
        <path id="Path_357" data-name="Path 357" d="M101.448,157.656q-4.043,0-8.086,0c-1.044,0-1.462-.336-1.46-1.15,0-.763.5-1.16,1.486-1.161q8.086,0,16.172,0c.962,0,1.574.5,1.527,1.223-.046.7-.488,1.083-1.321,1.085-2.772.008-5.545,0-8.317,0" transform="translate(-77.921 -131.435)" fill="#9a98a0"/>
        <path id="Path_358" data-name="Path 358" d="M247.883,183.191q.014,3.987.028,7.975c-1.486.012-2.971.029-4.456.032a.839.839,0,0,1-.935-.959c0-2.026.006-4.052,0-6.078a.85.85,0,0,1,.984-.979c1.46.011,2.921.007,4.382.009" transform="translate(-205.262 -154.977)" fill="#4ebfee"/>
        <path id="Path_359" data-name="Path 359" d="M290.393,283.443q-3,0-6,0c-.927,0-1.421-.4-1.44-1.129-.019-.756.5-1.181,1.463-1.182q6,0,11.993,0c.922,0,1.411.394,1.424,1.128.014.774-.478,1.181-1.447,1.182q-3,0-6,0" transform="translate(-239.452 -237.805)" fill="#9998a0"/>
        <path id="Path_360" data-name="Path 360" d="M127.232,123.665c-2.028,0-4.056,0-6.083,0-.913,0-1.321-.356-1.332-1.12-.011-.72.467-1.184,1.3-1.186q6.122-.016,12.244,0a1.218,1.218,0,0,1,1.326,1.2c-.028.721-.495,1.107-1.376,1.11-2.028.006-4.056,0-6.084,0" transform="translate(-101.522 -102.69)" fill="#9998a0"/>
        <path id="Path_361" data-name="Path 361" d="M411.161,5.036a3.66,3.66,0,0,1,2.616-2.943c.69-.2.719.3.733.733.046,1.429.025,2.859.012,4.288,0,.549.138,1.132-.246,1.628v.072a3.558,3.558,0,0,1-3.056.053,12.51,12.51,0,0,1-.059-3.83" transform="translate(-347.744 -1.803)" fill="#e95232"/>
        <path id="Path_362" data-name="Path 362" d="M299.635,351.337c-.946,0-1.893.011-2.839,0a1.162,1.162,0,1,1-.018-2.3q2.877-.019,5.754,0a1.155,1.155,0,1,1,.018,2.3c-.971.021-1.943.005-2.915.005" transform="translate(-250.04 -295.214)" fill="#9998a0"/>
        <path id="Path_363" data-name="Path 363" d="M136.27,191.572c-.949,0-1.9.01-2.847,0a1.176,1.176,0,0,1-1.313-1.113,1.206,1.206,0,0,1,1.268-1.186q2.924-.037,5.849,0a1.12,1.12,0,0,1,1.186,1.219c-.029.7-.421,1.067-1.218,1.079-.975.015-1.95,0-2.924,0" transform="translate(-111.916 -160.11)" fill="#9a99a0"/>
        <path id="Path_364" data-name="Path 364" d="M411.324,45.941l3.056-.053q0,2.27,0,4.539c-.89.006-1.78.014-2.669.019-.258,0-.544.016-.543-.358q.006-1.983.032-3.965c0-.061.083-.122.128-.182" transform="translate(-347.848 -38.877)" fill="#a9cee2"/>
        <path id="Path_365" data-name="Path 365" d="M257.48,351.3c-.436,0-.872.02-1.307,0a1.122,1.122,0,0,1-1.132-1.125A1.111,1.111,0,0,1,256.123,349c.922-.034,1.846-.033,2.768,0a1.146,1.146,0,0,1,1.146,1.12,1.182,1.182,0,0,1-1.172,1.179c-.051,0-.1,0-.154,0h-1.23Z" transform="translate(-215.851 -295.176)" fill="#9a99a0"/>
        <path id="Path_366" data-name="Path 366" d="M94.34,191.516c-.434,0-.87.015-1.3,0a1.036,1.036,0,0,1-1.133-1.078,1.1,1.1,0,0,1,1.026-1.2,22.75,22.75,0,0,1,2.91.008,1.063,1.063,0,0,1,1,1.155,1.149,1.149,0,0,1-1.124,1.122c-.051,0-.1,0-.153,0H94.34" transform="translate(-77.922 -160.054)" fill="#9a99a1"/>
        <path id="Path_367" data-name="Path 367" d="M101.357,122.552a1.151,1.151,0,0,1-2.3.038,1.151,1.151,0,1,1,2.3-.038" transform="translate(-83.969 -102.74)" fill="#9a99a1"/>
        <path id="Path_368" data-name="Path 368" d="M196.057,190.506a1.151,1.151,0,0,1-2.3-.033,1.151,1.151,0,1,1,2.3.033" transform="translate(-164.035 -160.175)" fill="#9a99a1"/>
        <path id="Path_369" data-name="Path 369" d="M358.357,349.082a1.153,1.153,0,1,1-1.144,1.118,1.183,1.183,0,0,1,1.144-1.118" transform="translate(-302.234 -295.267)" fill="#9a99a1"/>
        <path id="Path_370" data-name="Path 370" d="M264.806,282.308a1.188,1.188,0,0,1-1.112,1.155,1.152,1.152,0,1,1-.006-2.3,1.187,1.187,0,0,1,1.118,1.148" transform="translate(-222.159 -237.83)" fill="#9a99a1"/>
        <path id="Path_371" data-name="Path 371" d="M379.1,43.427a1.045,1.045,0,0,1,1.116-1.093,1.167,1.167,0,0,1,1.182,1.141,1.347,1.347,0,0,1-1.158,1.151,1.163,1.163,0,0,1-1.139-1.2" transform="translate(-320.735 -35.872)" fill="#9a99a1"/>
        <path id="Path_372" data-name="Path 372" d="M300.341,43.427a1.045,1.045,0,0,1,1.116-1.093,1.167,1.167,0,0,1,1.182,1.141,1.347,1.347,0,0,1-1.158,1.151,1.163,1.163,0,0,1-1.139-1.2" transform="translate(-254.15 -35.872)" fill="#9a99a1"/>
        <path id="Path_373" data-name="Path 373" d="M142.83,43.45a1.043,1.043,0,0,1,1.094-1.115,1.167,1.167,0,0,1,1.2,1.119,1.351,1.351,0,0,1-1.136,1.175,1.162,1.162,0,0,1-1.162-1.178" transform="translate(-120.979 -35.872)" fill="#9a99a1"/>
        <path id="Path_374" data-name="Path 374" d="M221.586,43.411a1.057,1.057,0,0,1,1.205-1.079,1.168,1.168,0,0,1,1.092,1.153,1.341,1.341,0,0,1-1.171,1.137,1.163,1.163,0,0,1-1.127-1.211" transform="translate(-187.565 -35.869)" fill="#9a99a1"/>
        <path id="Path_375" data-name="Path 375" d="M312.191,146.368a.288.288,0,0,1,.027-.116c1.489,0,2.978-.026,4.465.015.607.017.786-.166.783-.779-.023-5.086-.014-10.172-.014-15.258a.593.593,0,0,1,.127-.028q.014,6.7.029,13.4c0,.924.01,1.848.014,2.772l-5.431-.007" transform="translate(-264.169 -110.175)" fill="#f9d46c"/>
        <path id="Path_376" data-name="Path 376" d="M27.26,247.233c1.05.136,1.661.961,2.421,1.55.385.3.745.627,1.117.942-.481.728-1.331.98-1.967,1.518a14.459,14.459,0,0,0-3.286,3.715c-.132.226-.216.539-.557.582-.675-.8-1.364-1.588-2.02-2.4a1.515,1.515,0,0,1,.083-2.2c1.028-1.066,2.09-2.1,3.135-3.149a2.362,2.362,0,0,1,1.075-.549" transform="translate(-19.271 -209.141)" fill="#00addf"/>
        <path id="Path_377" data-name="Path 377" d="M25.014,387.076c.764.485.991,1.384,1.557,2.035a16.233,16.233,0,0,0,3.605,3.186c.248.155.583.234.648.6-.784.662-1.557,1.337-2.354,1.982a1.551,1.551,0,0,1-2.328-.12q-1.514-1.48-2.993-3a1.555,1.555,0,0,1-.118-2.329c.648-.8,1.321-1.571,1.982-2.354" transform="translate(-19.297 -327.396)" fill="#00addf"/>
        <path id="Path_378" data-name="Path 378" d="M5.387,317.932c.57-.021.858.061.674.805a13.294,13.294,0,0,0,0,6.452c.184.744-.1.826-.674.8-.815-.061-1.63-.109-2.443-.187a1.581,1.581,0,0,1-1.487-1.656q-.053-2.187,0-4.376A1.594,1.594,0,0,1,3.1,318.11c.764-.055,1.527-.118,2.291-.177" transform="translate(-1.429 -268.924)" fill="#00addf"/>
        <path id="Path_379" data-name="Path 379" d="M429.246,8.1q0-2.957,0-5.914c0-.364.057-.755-.5-.734.174-.208.426-.106.639-.164h1.107a3.75,3.75,0,0,1,3.247,3.4q-.015,1.7-.031,3.408l-4.463,0" transform="translate(-362.713 -1.164)" fill="#f56347"/>
        <path id="Path_380" data-name="Path 380" d="M72.548,306.085a8.48,8.48,0,1,1,8.52-8.334,8.5,8.5,0,0,1-8.52,8.334" transform="translate(-54.435 -244.566)" fill="#00addf"/>
        <path id="Path_381" data-name="Path 381" d="M97.929,326.819A3.851,3.851,0,1,1,101.752,323a3.852,3.852,0,0,1-3.823,3.818" transform="translate(-79.742 -269.928)" fill="#f0e7da"/>
      </g>
    </g>
  </g>
</svg>
