<svg width="48" height="48" viewBox="0 0 48 48" fill="none" xmlns="http://www.w3.org/2000/svg">
<path d="M44 24C44 20.0444 42.827 16.1776 40.6294 12.8886C38.4318 9.59962 35.3082 7.03617 31.6537 5.52242C27.9991 4.00867 23.9778 3.6126 20.0982 4.38431C16.2186 5.15601 12.6549 7.06083 9.85786 9.85788C7.06081 12.6549 5.156 16.2186 4.38429 20.0982C3.61259 23.9778 4.00866 27.9992 5.52241 31.6537C7.03616 35.3082 9.59962 38.4318 12.8886 40.6294C16.1776 42.827 20.0444 44 24 44C26.6267 44.0008 29.2277 43.484 31.6546 42.4792C34.0815 41.4744 36.2866 40.0012 38.1439 38.1439C40.0012 36.2866 41.4744 34.0815 42.4792 31.6546C43.484 29.2277 44.0008 26.6267 44 24ZM20 24L28 16L28 32L20 24Z" fill="#F4FFFF"/>
</svg>
