<svg xmlns="http://www.w3.org/2000/svg" width="112" height="111" viewBox="0 0 112 111">
  <g id="Group_1080" data-name="Group 1080" transform="translate(-126)">
    <g id="Group_1033" data-name="Group 1033" transform="translate(126.404)">
      <g id="Rectangle_25" data-name="Rectangle 25" transform="translate(-0.404)" fill="#fff" stroke="#5cbf22" stroke-width="4">
        <rect width="112" height="111" rx="55" stroke="none"/>
        <rect x="2" y="2" width="108" height="107" rx="53" fill="none"/>
      </g>
    </g>
    <g id="Group_1026" data-name="Group 1026" transform="translate(153.276 17.99)">
      <g id="Group_1020" data-name="Group 1020" transform="translate(0 0)">
        <path id="Path_470" data-name="Path 470" d="M221.115,304.716c3.269,1.269,6.547,2.514,9.8,3.811a10.221,10.221,0,0,1,6.759,8.221c.023.137-.018.3.156.376v.733a1.491,1.491,0,0,0-.072.788q-.007,7.2-.006,14.407a2.151,2.151,0,0,1-.05.8,1.288,1.288,0,0,1-1.384,1.139c-2.576.017-5.152-.006-7.729-.013-.308-.352-.219-.785-.22-1.189q-.011-6.03-.006-12.061a3.13,3.13,0,0,0-.156-1.3.81.81,0,0,0-.912-.569.762.762,0,0,0-.643.776,8.749,8.749,0,0,0-.025.876q0,6.14,0,12.28a1.635,1.635,0,0,1-.222,1.19l-11.853,0a1.18,1.18,0,0,1-.327-.791c-.962-5.735-1.953-11.465-2.917-17.2a1.887,1.887,0,0,1-.03-.435,10.326,10.326,0,0,1,2.192-3.316c.559.014.908.425,1.32.712.953.665,1.349.578,1.87-.464,1.346-2.7,2.706-5.386,4.047-8.085a1.833,1.833,0,0,1,.41-.681" transform="translate(-180.386 -259.979)" fill="#509dfe"/>
        <path id="Path_471" data-name="Path 471" d="M107.546.118c.8.176,1.6.323,2.386.534a14.89,14.89,0,0,1,9.287,7.127,13.4,13.4,0,0,1,1.96,6.991.9.9,0,0,1-.939.114.73.73,0,0,1-.323-.453.993.993,0,0,0-.759-.829.715.715,0,0,1-.426-.324,14.047,14.047,0,0,0-2.66-5.808,12.891,12.891,0,0,0-8.81-4.842,17.922,17.922,0,0,0-4.372.1,12.708,12.708,0,0,0-10.359,9.542,7.22,7.22,0,0,1-.272.91c-.063.13-.137.288-.268.32a1.656,1.656,0,0,0-1.15,1.232.769.769,0,0,1-1.036.035A14.438,14.438,0,0,1,95.327,3.581,14.516,14.516,0,0,1,103.266.239c.062-.007.117-.079.175-.121Z" transform="translate(-76.777 -0.118)" fill="#e3e9f8"/>
        <path id="Path_472" data-name="Path 472" d="M390.938,410.177q-.009-7.765-.018-15.53c0-.168-.029-.348.146-.462v15.971a1.193,1.193,0,0,1-.128.021" transform="translate(-333.618 -336.308)" fill="#91c1fe"/>
        <path id="Path_473" data-name="Path 473" d="M46.877,334.964l-11.827.007a1.635,1.635,0,0,1-.222-1.19q-.01-6.14,0-12.28a8.756,8.756,0,0,0-.025-.876.762.762,0,0,0-.643-.776.81.81,0,0,0-.912.569,3.127,3.127,0,0,0-.156,1.3q0,6.03-.006,12.061c0,.4.088.837-.22,1.189H28.738c-.865-.191-1.154-.514-1.218-1.378-.027-.365-.013-.732-.013-1.1q0-8.161,0-16.322a9.656,9.656,0,0,1,3.739-7.76,1.011,1.011,0,0,0,.259-.254l6.657-2.6,2.177-.848a1.649,1.649,0,0,1,.379.617c1.342,2.708,2.709,5.4,4.055,8.109.554,1.114.935,1.19,1.976.446.37-.264.692-.632,1.205-.627a11.243,11.243,0,0,1,2.206,3.284c-.42,2.941-.982,5.859-1.453,8.791-.464,2.885-1,5.758-1.469,8.642-.056.346-.018.746-.36,1" transform="translate(-23.635 -259.97)" fill="#509dfe"/>
        <path id="Path_474" data-name="Path 474" d="M136.848,143.333q.007,2.562.014,5.125c.073.29-.154.441-.3.623-1.727,2.19-3.5,4.345-5.257,6.507-.2.244-.4.5-.783.415a8.864,8.864,0,0,1-2.218-2.874c-.08-2.286-.015-4.572-.036-6.857-.009-1.01-.007-1.014-.989-1.3a17.717,17.717,0,0,1-2.537-1.059c0,1.194,0,2.33,0,3.465a2.149,2.149,0,0,1-.123,1,.142.142,0,0,1-.213.059c0-1.488-.014-2.977-.007-4.465a.922.922,0,0,0-.395-.861,10.656,10.656,0,0,1-4.495-8.236c-.04-.655-.076-1.31-.1-1.965a6.081,6.081,0,0,1,.066-1.8c-.032-1.746-.014-3.494-.01-5.241a3.336,3.336,0,0,1,.094-1.083.953.953,0,0,1,.907-.564,13.216,13.216,0,0,1,2.956.091c.381.283.28.7.281,1.079.01,3.052,0,6.1.006,9.154a10.645,10.645,0,0,0,8.024,10.07c1.5.35,2.763-.341,4.045-.937.344-.16.63-.488,1.071-.355" transform="translate(-101.968 -105.97)" fill="#febda8"/>
        <path id="Path_475" data-name="Path 475" d="M9.058,328.184c.237.308-.119.389-.235.486a9.945,9.945,0,0,0-3.452,5.906,4.692,4.692,0,0,0-.092.938c0,5.945.007,11.891-.017,17.836A1.563,1.563,0,0,0,6.29,355c-1.1.008-2.2.023-3.294.024-1.269,0-1.8-.536-1.806-1.834-.007-2.025,0-4.05,0-6.075,0-2.83,0-5.66,0-8.49a10.472,10.472,0,0,1,7.868-10.436" transform="translate(-1.187 -280.001)" fill="#2c8af1"/>
        <path id="Path_476" data-name="Path 476" d="M159.273,401.4l3.144-18.585a.582.582,0,0,1,.454-.2,26.989,26.989,0,0,1,3.768.052.541.541,0,0,1,.217.151,1.627,1.627,0,0,1,.014,1q-1.414,8.388-2.843,16.774a1.336,1.336,0,0,1-.312.8h-4.442" transform="translate(-136.031 -326.406)" fill="#fe6a67"/>
        <path id="Path_477" data-name="Path 477" d="M120.539,289.318a.291.291,0,0,0,.122.025c.6.248.855.832,1.24,1.279.788.915,1.493,1.9,2.295,2.8a4.638,4.638,0,0,1,.415.756l2.053,2.649a.246.246,0,0,1,.079.186.824.824,0,0,1-.391.5c-1.179.84-2.363,1.671-3.545,2.507a.679.679,0,0,1-.4.148c-.521.353-1.03.725-1.566,1.054-.667.41-1.177.3-1.515-.366-1.492-2.947-2.964-5.9-4.436-8.861a1.652,1.652,0,0,1-.085-.42l5.734-2.26" transform="translate(-98.1 -246.843)" fill="#2c8af1"/>
        <path id="Path_478" data-name="Path 478" d="M189.485,402.452c.254-1.6.5-3.2.764-4.793.472-2.81.963-5.616,1.438-8.425.3-1.785.592-3.573.887-5.359a.176.176,0,0,1,.263-.008q1.522,8.967,3.044,17.935c.037.216.057.435.084.653l-6.481,0" transform="translate(-161.801 -327.458)" fill="#fd8483"/>
        <path id="Path_479" data-name="Path 479" d="M95.4,90.331c-.022-.645.225-1.087.914-1.166.207-.024.256-.2.383-.3q.6.066,1.2.107c.262.018.6-.018.623.4a4.2,4.2,0,0,0-.4,2.05c.016,3.117.024,6.234-.006,9.351-.007.737.188,1.436.224,2.16a4.354,4.354,0,0,1-2.216.089c-.657-.09-.741-.675-.729-1.241a1.352,1.352,0,0,1-.2-.955c-.033-3.133-.041-6.267,0-9.4a1.669,1.669,0,0,1,.207-1.094" transform="translate(-81.347 -75.827)" fill="#c2c7d0"/>
        <path id="Path_480" data-name="Path 480" d="M63.923,421.022q0-6.917,0-13.835c0-1.068.579-1.75,1.335-1.584a1.023,1.023,0,0,1,.872,1.151c-.018,4.758-.013,9.516-.016,14.274l-2.189-.006" transform="translate(-54.696 -346.028)" fill="#2c8bf1"/>
        <path id="Path_481" data-name="Path 481" d="M314.085,421.078c0-4.758,0-9.516-.017-14.274a1.008,1.008,0,0,1,.944-1.16,1.056,1.056,0,0,1,1.172.874,2.535,2.535,0,0,1,.094.719q0,6.918,0,13.835l-2.189.006" transform="translate(-268.067 -346.077)" fill="#2c8bf1"/>
        <path id="Path_482" data-name="Path 482" d="M63.606,109.415q0,.452-.009.9a5.726,5.726,0,0,1-5.7-5.853A5.87,5.87,0,0,1,62.1,99.171c.163-.042.322-.1.483-.154a1.788,1.788,0,0,0,1.024-.147q0,.517,0,1.034c-.422.566-1.019.953-1.466,1.508a5.592,5.592,0,0,0,.761,7.278,2.418,2.418,0,0,1,.706.725" transform="translate(-49.555 -84.366)" fill="#d7dbe4"/>
        <path id="Path_483" data-name="Path 483" d="M114.171,105.506a2.29,2.29,0,0,1-.441-1.426c.01-3.6,0-7.2.007-10.794a1.412,1.412,0,0,1,.576-1.4.573.573,0,0,1,.656.542,11.936,11.936,0,0,1-.062,4.737c0,2.233-.012,4.467-.007,6.7a3.924,3.924,0,0,1-.277,1.486l-.452.156" transform="translate(-97.183 -78.402)" fill="#d7dae3"/>
        <path id="Path_484" data-name="Path 484" d="M161,118.075c-.851.41-1.675.866-2.549,1.243-1.7.733-3.2.23-4.681-.5a10.856,10.856,0,0,1-6.069-8.3,4.191,4.191,0,0,1-.045-.726q0-5.3,0-10.6a5.314,5.314,0,0,1,2.257-.457,26.87,26.87,0,0,0,9.843-3.51c.229-.138.456-.282.694-.405a1.444,1.444,0,0,1,1.874.249c1.079,1.189,2.232,2.31,3.248,3.556a1.815,1.815,0,0,1,.307.58,4.292,4.292,0,0,1,.184,1.374c0,2.245.007,4.49,0,6.735a17.405,17.405,0,0,1-.62,5.089,1.468,1.468,0,0,1-.366.774.936.936,0,0,1-.489.135c-2.293.006-4.587.077-6.879-.036a5.474,5.474,0,0,1-1.074-.583,5.176,5.176,0,0,0-2.237-.08,1.6,1.6,0,0,0,0,3.166,5.262,5.262,0,0,0,2.238-.078,5.678,5.678,0,0,1,1.069-.58c1.811-.121,3.623-.043,5.434-.043a.7.7,0,0,1,.646.255A13.471,13.471,0,0,1,161,118.075" transform="translate(-126.119 -80.712)" fill="#feccbd"/>
        <path id="Path_485" data-name="Path 485" d="M195.492,297.072l-.024-.167c.377.047.481-.287.651-.5q2.849-3.495,5.679-7.005l5.835,2.249a1.167,1.167,0,0,1-.211.684q-2.088,4.176-4.178,8.351c-.488.973-.923,1.081-1.84.477l-1.393-.92a11.991,11.991,0,0,1-2.434-1.6,19.234,19.234,0,0,1-2.086-1.569" transform="translate(-166.904 -246.916)" fill="#2c8af1"/>
        <path id="Path_486" data-name="Path 486" d="M287.181,90.936a.832.832,0,0,1,.738.873.594.594,0,0,1,.07.351q0,4.605,0,9.211c0,.094.023.2-.054.243.141-.2.054-.449.054-.682.008-2.632,0-5.263.009-7.895a1.57,1.57,0,0,1,.068-.789h1.027c.627.312,1.39.328,1.909.875a1.384,1.384,0,0,1,.232.971q.007,3.8,0,7.59a1.378,1.378,0,0,1-.233.97c-.194.27-.619.253-.748.6a2.358,2.358,0,0,1-1.292.449c-.539.052-.694.326-.682.817.015.656.023,1.313-.007,1.969-.013.274.044.607-.33.728-.437-.611-.218-1.309-.208-1.961.007-.431-.167-.5-.491-.52a1.335,1.335,0,0,1-.565-1.2q-.031-5.63,0-11.26a2.187,2.187,0,0,1,.509-1.341" transform="translate(-244.688 -77.597)" fill="#d7dbe4"/>
        <path id="Path_487" data-name="Path 487" d="M226.356,178.74a16.106,16.106,0,0,0,.075-2.9c.006-.542.079-.892.747-.811.51.062.957-.352,1.485-.261-.065,1.507.092,3.019-.1,4.524a5.053,5.053,0,0,1-4.665,4.377c-1.044.063-2.093.039-3.141.055l-6.3-.033a3.64,3.64,0,0,0,0-2.2l7.614-.028a1.433,1.433,0,0,1,.911-.167,2.829,2.829,0,0,0,3.175-2.259.493.493,0,0,1,.2-.292" transform="translate(-183.1 -149.104)" fill="#3e4b5b"/>
        <path id="Path_488" data-name="Path 488" d="M316.172,115.372q0-4.766,0-9.531a5.064,5.064,0,0,1,2.6,3.579,5.624,5.624,0,0,1-2.329,5.864.867.867,0,0,1-.273.089" transform="translate(-269.862 -90.313)" fill="#e3e9f8"/>
        <path id="Path_489" data-name="Path 489" d="M199.21,351.526l2.337,1.717-2.069,3.079-.263.008-.014-.011a9.617,9.617,0,0,1-1.822-2.6.808.808,0,0,1,.289-1.1c.514-.364.993-.779,1.543-1.093" transform="translate(-168.44 -299.914)" fill="#fe6a67"/>
        <path id="Path_490" data-name="Path 490" d="M146.62,31.327c-1.179-1.3-2.353-2.6-3.538-3.894a1.162,1.162,0,0,0-1.644-.163,27.62,27.62,0,0,1-6.477,3,29.009,29.009,0,0,1-6.371,1.2l-3.086-.049a.549.549,0,0,1-.167-.395c-.063-2.809-.155-5.607,1.005-8.285a13.9,13.9,0,0,1,6.726-7.222c.017-.008.02-.043.03-.065,4.535-.744,8.63.147,12.072,3.326a12.671,12.671,0,0,1,3.969,7.4c-.166.466-.581.343-.915.364-1.049.066-1.222.227-1.234,1.259-.011.919.015,1.839-.014,2.758-.009.291.066.656-.355.772" transform="translate(-107.055 -12.988)" fill="#576575"/>
        <path id="Path_491" data-name="Path 491" d="M270.293,95.039a23.013,23.013,0,0,0,.1-3.838c.019-.657.258-1.078.935-1.161.264-.032.535.006.8-.012.23-.015.493.1.677-.144l.409.154c-.645,4.084-.114,8.2-.294,12.292a1.972,1.972,0,0,0,.451,1.485c-.013.265-.227.3-.412.318a7.355,7.355,0,0,1-1.742-.015.94.94,0,0,1-.785-.753q0-3,0-6a10.842,10.842,0,0,0-.139-2.324" transform="translate(-230.728 -76.701)" fill="#c2c7d0"/>
        <path id="Path_492" data-name="Path 492" d="M116.284,16.883c-.041.438-.471.451-.728.61a13.842,13.842,0,0,0-6.721,9.973,47.132,47.132,0,0,0-.144,5.384,1.505,1.505,0,0,0-.724.333c-.009-1.351-.014-2.7-.03-4.053-.006-.487-.034-.975-.565-1.226-.386-.3-.834-.093-1.25-.148-.224-.029-.506.071-.529-.3a12.977,12.977,0,0,1,9.975-10.46,6.5,6.5,0,0,1,.717-.111" transform="translate(-90.242 -14.421)" fill="#3e4b5b"/>
        <path id="Path_493" data-name="Path 493" d="M295.367,97.322v9.346h-.146V96.883c.17.106.14.278.146.439" transform="translate(-251.991 -82.671)" fill="#dee1ea"/>
        <path id="Path_494" data-name="Path 494" d="M172.973,343.071c-.24.55-.79.753-1.227,1.076-.625.462-.7.74-.286,1.392.5.778,1,1.551,1.5,2.326l-4.374,0-2.08-3.08c1.171-1,2.5-1.793,3.724-2.725.19-.144.371-.3.557-.448a11.266,11.266,0,0,1,2.183,1.456" transform="translate(-142.203 -291.459)" fill="#ef504f"/>
        <path id="Path_495" data-name="Path 495" d="M158.587,265.711l-3.95-4.84v-4.926a13.421,13.421,0,0,0,3.656,1.439c.386.076.3.453.3.734q0,3.8,0,7.593" transform="translate(-132.076 -218.371)" fill="#f8ae9d"/>
        <path id="Path_496" data-name="Path 496" d="M81.359,115.418a5.139,5.139,0,0,1-2.641-4.332,5.5,5.5,0,0,1,1.342-4.18,3.4,3.4,0,0,1,1.3-1q0,4.756,0,9.511" transform="translate(-67.308 -90.37)" fill="#e3e9f8"/>
        <path id="Path_498" data-name="Path 498" d="M186.619,218.838a4.722,4.722,0,0,1-2.638.052,1.782,1.782,0,0,1,0-3.425,4.638,4.638,0,0,1,2.638.048c.07.223-.087.357-.2.508a1.555,1.555,0,0,0,0,2.31c.114.15.27.285.2.508" transform="translate(-156.005 -183.693)" fill="#3e4b5b"/>
        <path id="Path_499" data-name="Path 499" d="M204.178,220.091c-.352-.5-.873-.846-.9-1.589-.03-.807.49-1.218.9-1.737a1.753,1.753,0,0,1,.743.563,1.652,1.652,0,0,1,0,2.2,1.748,1.748,0,0,1-.742.56" transform="translate(-173.565 -184.947)" fill="#576574"/>
      </g>
    </g>
  </g>
</svg>
