<svg xmlns="http://www.w3.org/2000/svg" width="41" height="41" viewBox="0 0 41 41">
  <g id="Group_972" data-name="Group 972" transform="translate(-0.218 -0.231)">
    <circle id="Ellipse_57" data-name="Ellipse 57" cx="20.5" cy="20.5" r="20.5" transform="translate(0.218 0.231)" fill="#58c22c"/>
    <path id="Icon_ionic-logo-twitter" data-name="Icon ionic-logo-twitter" d="M22.273,6.511a8.652,8.652,0,0,1-2.458.676A4.3,4.3,0,0,0,21.7,4.818,8.5,8.5,0,0,1,18.98,5.857a4.278,4.278,0,0,0-7.4,2.926,4.19,4.19,0,0,0,.111.977A12.128,12.128,0,0,1,2.863,5.282,4.288,4.288,0,0,0,4.194,11a4.18,4.18,0,0,1-1.945-.535v.053a4.283,4.283,0,0,0,3.435,4.2,4.308,4.308,0,0,1-1.127.15,4.037,4.037,0,0,1-.8-.08,4.286,4.286,0,0,0,4,2.975A8.58,8.58,0,0,1,2.434,19.6a8.674,8.674,0,0,1-1.021-.062,11.962,11.962,0,0,0,6.551,1.936A12.1,12.1,0,0,0,20.151,9.283c0-.186,0-.371-.013-.553A8.712,8.712,0,0,0,22.273,6.511Z" transform="translate(8.643 7.759)" fill="#fff"/>
  </g>
</svg>
